SplineFontDB: 3.2
FontName: AurebeshBloopsAF
FullName: Aurebesh Bloops AF Regular
FamilyName: Aurebesh Bloops AF
Weight: Regular
Copyright: CC-0 Public Domain, by AurekFonts
Version: 1.0
ItalicAngle: 0
UnderlinePosition: 74.707
UnderlineWidth: 49.8047
Ascent: 1000
Descent: 0
InvalidEm: 0
sfntRevision: 0x00010000
LayerCount: 2
Layer: 0 1 "Back" 1
Layer: 1 1 "Fore" 0
XUID: [1021 764 -1482030943 12097]
StyleMap: 0x0040
FSType: 4
OS2Version: 2
OS2_WeightWidthSlopeOnly: 0
OS2_UseTypoMetrics: 0
CreationTime: 1607999287
ModificationTime: 1607999752
PfmFamily: 81
TTFWeight: 400
TTFWidth: 5
LineGap: 0
VLineGap: 0
Panose: 0 0 4 0 0 0 0 0 0 0
OS2TypoAscent: 1000
OS2TypoAOffset: 0
OS2TypoDescent: 0
OS2TypoDOffset: 0
OS2TypoLinegap: 0
OS2WinAscent: 1143
OS2WinAOffset: 0
OS2WinDescent: 0
OS2WinDOffset: 0
HheadAscent: 1143
HheadAOffset: 0
HheadDescent: 0
HheadDOffset: 0
OS2SubXSize: 500
OS2SubYSize: 500
OS2SubXOff: 0
OS2SubYOff: 0
OS2SupXSize: 500
OS2SupYSize: 500
OS2SupXOff: 0
OS2SupYOff: 500
OS2StrikeYSize: 50
OS2StrikeYPos: 200
OS2CapHeight: 1000
OS2XHeight: 1000
OS2Vendor: 'FSTR'
OS2CodePages: 00000001.00000000
OS2UnicodeRanges: 80000001.00000000.00000000.00000000
MarkAttachClasses: 1
DEI: 91125
ShortTable: maxp 16
  1
  0
  87
  100
  5
  0
  0
  2
  0
  0
  0
  0
  0
  0
  0
  0
EndShort
LangName: 1033 "" "" "" "AurebeshBloopsAF:Reg" "" "Version 1.0" "" "" "" "AurekFonts" "" "" "https://AurekFonts.github.io" "Creative Commons CC0 Public Domain Dedication" "http://creativecommons.org/publicdomain/zero/1.0/"
Encoding: UnicodeBmp
UnicodeInterp: none
NameList: AGL For New Fonts
DisplaySize: -72
AntiAlias: 1
FitToEm: 0
WinInfo: 0 25 10
BeginPrivate: 0
EndPrivate
BeginChars: 65539 87

StartChar: exclam
Encoding: 33 33 4
Width: 535
Flags: W
HStem: 143 143<75.1582 174.811> 286 142<360.158 459.842> 571 143<73.8489 174.811> 714 143<360.158 459.842>
VStem: 53.5 285.955<164.657 264.342 592.688 692.372>
LayerCount: 2
Fore
SplineSet
124.5 571 m 2,0,1
 94.5 571 94.5 571 74.5 592 c 0,2,3
 53.5 613 53.5 613 53.5 643 c 128,-1,4
 53.5 673 53.5 673 74.5 693 c 0,5,6
 95.5 714 95.5 714 124.5 714 c 128,-1,7
 153.5 714 153.5 714 175.5 735 c 0,8,9
 196.5 756 196.5 756 196.5 786 c 1,10,-1
 196.5 785 l 1,11,12
 196.5 815 196.5 815 217.5 836 c 128,-1,13
 238.5 857 238.5 857 267.5 857 c 2,14,-1
 410.5 857 l 2,15,16
 439.5 857 439.5 857 460.5 836 c 128,-1,17
 481.5 815 481.5 815 481.5 786 c 0,18,19
 481.5 756 481.5 756 460.5 735 c 128,-1,20
 439.5 714 439.5 714 410.5 714 c 0,21,22
 380.5 714 380.5 714 359.5 693 c 0,23,24
 339.454545455 672.954545455 339.454545455 672.954545455 339.454545455 645.619834711 c 0,25,26
 339.454545455 613.952380952 339.454545455 613.952380952 318.5 592 c 0,27,28
 297.5 571 297.5 571 267.5 571 c 2,29,-1
 124.5 571 l 2,0,1
124.5 143 m 2,30,31
 94.5 143 94.5 143 74.5 164 c 0,32,33
 53.5 185 53.5 185 53.5 214 c 0,34,35
 53.5 244 53.5 244 74.5 265 c 128,-1,36
 95.5 286 95.5 286 124.5 286 c 128,-1,37
 153.5 286 153.5 286 175.5 306 c 0,38,39
 196.5 327 196.5 327 196.5 357 c 0,40,41
 196.5 386 196.5 386 217.5 407 c 128,-1,42
 238.5 428 238.5 428 267.5 428 c 2,43,-1
 410.5 428 l 2,44,45
 439.5 428 439.5 428 460.5 407 c 128,-1,46
 481.5 386 481.5 386 481.5 357 c 0,47,48
 481.5 327 481.5 327 460.5 306 c 0,49,50
 440.454545455 285.954545455 440.454545455 285.954545455 413.119834711 285.954545455 c 0,51,52
 411.818181818 285.954545455 411.818181818 285.954545455 410.5 286 c 0,53,54
 380.5 286 380.5 286 359.5 265 c 0,55,56
 339.454545455 244.954545455 339.454545455 244.954545455 339.454545455 216.708677686 c 0,57,58
 339.454545455 184.954545455 339.454545455 184.954545455 318.5 164 c 128,-1,59
 297.5 143 297.5 143 267.5 143 c 2,60,-1
 124.5 143 l 2,30,31
EndSplineSet
Validated: 524289
EndChar

StartChar: quotedbl
Encoding: 34 34 5
Width: 392
Flags: W
HStem: 714 286<217.658 317.342> 857 286<74.6582 174.311>
VStem: 53 143<1020.35 1121.31> 196 143<735.658 835.342>
LayerCount: 2
Fore
SplineSet
267 714 m 0,0,1
 238 714 238 714 217 735 c 128,-1,2
 196 756 196 756 196 786 c 0,3,4
 196 815 196 815 175 836 c 128,-1,5
 154 857 154 857 124 857 c 128,-1,6
 94 857 94 857 74 878 c 0,7,8
 53 899 53 899 53 928 c 2,9,-1
 53 1071 l 2,10,11
 53 1100 53 1100 74 1122 c 0,12,13
 95 1143 95 1143 124 1143 c 128,-1,14
 153 1143 153 1143 175 1122 c 0,15,16
 196 1101 196 1101 196 1071 c 128,-1,17
 196 1041 196 1041 217 1021 c 0,18,19
 238 1000 238 1000 267 1000 c 0,20,21
 297 1000 297 1000 318 979 c 128,-1,22
 339 958 339 958 339 928 c 2,23,-1
 339 786 l 2,24,25
 339 756 339 756 318 735 c 128,-1,26
 297 714 297 714 267 714 c 0,0,1
EndSplineSet
Validated: 1
EndChar

StartChar: dollar
Encoding: 36 36 6
Width: 963
Flags: W
HStem: 0 21G<594 653.5> 0 21G<594 653.5> 428 429<788.658 888.342> 571 429<217.658 317.342> 714 143<359.658 459.342 645.658 746.651> 980 20G<538 567.5>
VStem: 196 143<878.658 978.342> 481 143<878.658 978.342> 624 143<306.658 406.342> 767 143<449.658 693.651>
LayerCount: 2
Fore
SplineSet
839 428 m 0,0,1
 809 428 809 428 788 449 c 128,-1,2
 767 470 767 470 767 500 c 2,3,-1
 767 643 l 2,4,5
 767 673 767 673 746 693 c 0,6,7
 725 714 725 714 696 714 c 2,8,-1
 410 714 l 2,9,10
 380 714 380 714 359 693 c 0,11,12
 338.954545455 672.954545455 338.954545455 672.954545455 338.954545455 645.619834711 c 0,13,14
 338.954545455 613.952380952 338.954545455 613.952380952 318 592 c 0,15,16
 297 571 297 571 267 571 c 2,17,-1
 196 571 l 2,18,19
 137 571 137 571 95 613 c 128,-1,20
 53 655 53 655 53 714 c 2,21,-1
 53 785 l 2,22,23
 53 815 53 815 74 836 c 128,-1,24
 95 857 95 857 124 857 c 128,-1,25
 153 857 153 857 175 878 c 0,26,27
 196 899 196 899 196 928 c 0,28,29
 196 958 196 958 217 979 c 128,-1,30
 238 1000 238 1000 267 1000 c 0,31,32
 297 1000 297 1000 318 979 c 128,-1,33
 339 958 339 958 339 928 c 0,34,35
 339 899 339 899 359 878 c 0,36,37
 380 857 380 857 410 857 c 0,38,39
 439 857 439 857 460 878 c 128,-1,40
 481 899 481 899 481 928 c 0,41,42
 481 958 481 958 502 979 c 128,-1,43
 523 1000 523 1000 553 1000 c 0,44,45
 582 1000 582 1000 603 979 c 128,-1,46
 624 958 624 958 624 928 c 0,47,48
 624 899 624 899 645 878 c 128,-1,49
 666 857 666 857 696 857 c 2,50,-1
 839 857 l 2,51,52
 868 857 868 857 889 836 c 128,-1,53
 910 815 910 815 910 786 c 2,54,-1
 910 500 l 2,55,56
 910 470 910 470 889 449 c 128,-1,57
 868 428 868 428 839 428 c 0,0,1
624 0 m 0,58,59
 564 0 564 0 523 42 c 0,60,61
 481 84 481 84 481 143 c 2,62,-1
 481 214 l 2,63,64
 481 244 481 244 502 265 c 128,-1,65
 523 286 523 286 553 286 c 0,66,67
 582 286 582 286 603 306 c 0,68,69
 624 327 624 327 624 357 c 0,70,71
 624 386 624 386 645 407 c 128,-1,72
 666 428 666 428 696 428 c 128,-1,73
 726 428 726 428 746 407 c 0,74,75
 767 386 767 386 767 357 c 2,76,-1
 767 143 l 2,77,78
 767 84 767 84 725 42 c 128,-1,79
 683 0 683 0 624 0 c 0,58,59
EndSplineSet
Validated: 524289
EndChar

StartChar: ampersand
Encoding: 38 38 7
Width: 963
Flags: W
HStem: 0 286<120.289 317.342> 0 143<359.658 746.651> 428 143<502.658 745.342> 714 286<119.97 317.342> 857 143<359.658 745.342>
VStem: 767 143<163.349 406.342 591.349 835.342>
LayerCount: 2
Fore
SplineSet
124 0 m 2,0,1
 94 0 94 0 74 21 c 0,2,3
 53 42 53 42 53 71 c 2,4,-1
 53 143 l 2,5,6
 53 202 53 202 95 244 c 128,-1,7
 137 286 137 286 196 286 c 2,8,-1
 267 286 l 2,9,10
 297 286 297 286 318 265 c 128,-1,11
 339 244 339 244 339 214 c 0,12,13
 339 185 339 185 359 164 c 0,14,15
 380 143 380 143 410 143 c 2,16,-1
 696 143 l 2,17,18
 726 143 726 143 746 164 c 0,19,20
 767 185 767 185 767 214 c 2,21,-1
 767 357 l 2,22,23
 767 386 767 386 746 407 c 128,-1,24
 725 428 725 428 696 428 c 2,25,-1
 553 428 l 2,26,27
 523 428 523 428 502 449 c 128,-1,28
 481 470 481 470 481 500 c 0,29,30
 481 529 481 529 502 550 c 128,-1,31
 523 571 523 571 553 571 c 2,32,-1
 696 571 l 2,33,34
 726 571 726 571 746 592 c 0,35,36
 767 613 767 613 767 643 c 2,37,-1
 767 786 l 2,38,39
 767 815 767 815 746 836 c 128,-1,40
 725 857 725 857 696 857 c 2,41,-1
 410 857 l 2,42,43
 380 857 380 857 359 836 c 0,44,45
 338.954545455 815.954545455 338.954545455 815.954545455 338.954545455 788.619834711 c 0,46,47
 338.954545455 755.954545455 338.954545455 755.954545455 318 735 c 128,-1,48
 297 714 297 714 267 714 c 2,49,-1
 196 714 l 2,50,51
 137 714 137 714 95 756 c 128,-1,52
 53 798 53 798 53 857 c 128,-1,53
 53 916 53 916 95 958 c 128,-1,54
 137 1000 137 1000 196 1000 c 2,55,-1
 839 1000 l 2,56,57
 868 1000 868 1000 889 979 c 128,-1,58
 910 958 910 958 910 928 c 2,59,-1
 910 143 l 2,60,61
 910 84 910 84 868 42 c 128,-1,62
 826 0 826 0 767 0 c 2,63,-1
 124 0 l 2,0,1
EndSplineSet
Validated: 524289
EndChar

StartChar: quotesingle
Encoding: 39 39 8
Width: 392
Flags: W
HStem: 714 429<217.658 317.342> 1000 143<74.6582 174.342>
VStem: 53 286<1020.35 1121.31> 196 143<735.658 978.342>
LayerCount: 2
Fore
SplineSet
267 714 m 0,0,1
 238 714 238 714 217 735 c 128,-1,2
 196 756 196 756 196 786 c 2,3,-1
 196 928 l 2,4,5
 196 958 196 958 175 979 c 128,-1,6
 154 1000 154 1000 124 1000 c 128,-1,7
 94 1000 94 1000 74 1021 c 0,8,9
 53 1042 53 1042 53 1071 c 128,-1,10
 53 1100 53 1100 74 1122 c 0,11,12
 95 1143 95 1143 124 1143 c 2,13,-1
 267 1143 l 2,14,15
 297 1143 297 1143 318 1122 c 128,-1,16
 339 1101 339 1101 339 1071 c 2,17,-1
 339 786 l 2,18,19
 339 756 339 756 318 735 c 128,-1,20
 297 714 297 714 267 714 c 0,0,1
EndSplineSet
Validated: 1
EndChar

StartChar: parenleft
Encoding: 40 40 9
Width: 392
Flags: W
HStem: 0 21G<252.5 282> 0 21G<252.5 282> 428 143<74.6582 174.311> 980 20G<252.5 282> 980 20G<252.5 282>
VStem: 196 143<21.6582 406.342 592.658 978.342>
LayerCount: 2
Fore
SplineSet
267 0 m 0,0,1
 238 0 238 0 217 21 c 128,-1,2
 196 42 196 42 196 71 c 2,3,-1
 196 357 l 2,4,5
 196 386 196 386 175 407 c 128,-1,6
 154 428 154 428 124 428 c 128,-1,7
 94 428 94 428 74 449 c 0,8,9
 53 470 53 470 53 500 c 0,10,11
 53 529 53 529 74 550 c 128,-1,12
 95 571 95 571 124 571 c 128,-1,13
 153 571 153 571 175 592 c 0,14,15
 196 613 196 613 196 643 c 2,16,-1
 196 928 l 2,17,18
 196 958 196 958 217 979 c 128,-1,19
 238 1000 238 1000 267 1000 c 0,20,21
 297 1000 297 1000 318 979 c 128,-1,22
 339 958 339 958 339 928 c 2,23,-1
 339 71 l 2,24,25
 339 41 339 41 318 21 c 0,26,27
 297 0 297 0 267 0 c 0,0,1
EndSplineSet
Validated: 1
EndChar

StartChar: parenright
Encoding: 41 41 10
Width: 392
Flags: W
HStem: 0 21G<109 139> 0 21G<109 139> 428 143<217.658 317.342> 980 20G<109.5 138.5> 980 20G<109.5 138.5>
VStem: 53 143<20.3489 406.342 592.689 978.342>
LayerCount: 2
Fore
SplineSet
124 0 m 128,-1,1
 94 0 94 0 74 21 c 0,2,3
 53 42 53 42 53 71 c 2,4,-1
 53 928 l 2,5,6
 53 958 53 958 74 979 c 128,-1,7
 95 1000 95 1000 124 1000 c 128,-1,8
 153 1000 153 1000 175 979 c 0,9,10
 196 958 196 958 196 928 c 2,11,-1
 196 643 l 2,12,13
 196 614 196 614 217 592 c 0,14,15
 238 571 238 571 267 571 c 0,16,17
 297 571 297 571 318 550 c 128,-1,18
 339 529 339 529 339 500 c 0,19,20
 339 470 339 470 318 449 c 128,-1,21
 297 428 297 428 267 428 c 0,22,23
 238 428 238 428 217 407 c 128,-1,24
 196 386 196 386 196 357 c 2,25,-1
 196 71 l 2,26,27
 196 41 196 41 175 21 c 0,28,0
 154 0 154 0 124 0 c 128,-1,1
EndSplineSet
Validated: 1
EndChar

StartChar: plus
Encoding: 43 43 11
Width: 821
Flags: W
HStem: 857 143<75.1582 317.842 503.158 745.842>
VStem: 339.5 142<592.689 835.342>
LayerCount: 2
Fore
SplineSet
410.5 571 m 0,0,1
 380.5 571 380.5 571 359.5 592 c 128,-1,2
 338.5 613 338.5 613 339.5 643 c 2,3,-1
 339.5 786 l 2,4,5
 339.5 815 339.5 815 318.5 836 c 128,-1,6
 297.5 857 297.5 857 267.5 857 c 2,7,-1
 124.5 857 l 2,8,9
 94.5 857 94.5 857 74.5 878 c 0,10,11
 53.5 899 53.5 899 53.5 928 c 0,12,13
 53.5 958 53.5 958 74.5 979 c 128,-1,14
 95.5 1000 95.5 1000 124.5 1000 c 2,15,-1
 696.5 1000 l 2,16,17
 726.5 1000 726.5 1000 746.5 979 c 0,18,19
 767.5 958 767.5 958 767.5 928 c 0,20,21
 767.5 899 767.5 899 746.5 878 c 128,-1,22
 725.5 857 725.5 857 696.5 857 c 2,23,-1
 553.5 857 l 2,24,25
 523.5 857 523.5 857 502.5 836 c 128,-1,26
 481.5 815 481.5 815 481.5 786 c 2,27,-1
 481.5 643 l 2,28,29
 481.5 614 481.5 614 460.5 592 c 0,30,31
 439.5 571 439.5 571 410.5 571 c 0,0,1
EndSplineSet
Validated: 524321
EndChar

StartChar: comma
Encoding: 44 44 12
Width: 392
Flags: W
HStem: 0 21G<109 225.5> 0 21G<109 225.5>
VStem: 53 286<66.9697 361.482>
LayerCount: 2
Fore
SplineSet
124 0 m 2,0,1
 94 0 94 0 74 21 c 0,2,3
 53 42 53 42 53 71 c 2,4,-1
 53 286 l 2,5,6
 53 345 53 345 95 386 c 0,7,8
 137 428 137 428 196 428 c 2,9,-1
 267 428 l 2,10,11
 297 428 297 428 318 407 c 128,-1,12
 339 386 339 386 339 357 c 2,13,-1
 339 143 l 2,14,15
 339 84 339 84 297 42 c 128,-1,16
 255 0 255 0 196 0 c 2,17,-1
 124 0 l 2,0,1
EndSplineSet
Validated: 1
EndChar

StartChar: hyphen
Encoding: 45 45 13
Width: 821
Flags: W
HStem: 857 143<75.1582 745.842>
LayerCount: 2
Fore
SplineSet
124.5 857 m 2,0,1
 94.5 857 94.5 857 74.5 878 c 0,2,3
 53.5 899 53.5 899 53.5 928 c 0,4,5
 53.5 958 53.5 958 74.5 979 c 128,-1,6
 95.5 1000 95.5 1000 124.5 1000 c 2,7,-1
 696.5 1000 l 2,8,9
 726.5 1000 726.5 1000 746.5 979 c 0,10,11
 767.5 958 767.5 958 767.5 928 c 0,12,13
 767.5 899 767.5 899 746.5 878 c 128,-1,14
 725.5 857 725.5 857 696.5 857 c 2,15,-1
 124.5 857 l 2,0,1
EndSplineSet
Validated: 524289
EndChar

StartChar: period
Encoding: 46 46 14
Width: 535
Flags: W
HStem: 0 21G<109.5 139.5 395.5 425> 0 21G<109.5 139.5 395.5 425>
VStem: 53.5 143<20.3489 406.342> 339.5 142<21.6582 406.342>
LayerCount: 2
Fore
SplineSet
410.5 0 m 0,0,1
 380.5 0 380.5 0 359.5 21 c 128,-1,2
 338.5 42 338.5 42 339.5 71 c 2,3,-1
 339.5 357 l 2,4,5
 339.5 386 339.5 386 359.5 407 c 0,6,7
 380.5 428 380.5 428 410.5 428 c 0,8,9
 439.5 428 439.5 428 460.5 407 c 128,-1,10
 481.5 386 481.5 386 481.5 357 c 2,11,-1
 481.5 71 l 2,12,13
 481.5 41 481.5 41 460.5 21 c 0,14,15
 439.5 0 439.5 0 410.5 0 c 0,0,1
124.5 0 m 128,-1,17
 94.5 0 94.5 0 74.5 21 c 0,18,19
 53.5 42 53.5 42 53.5 71 c 2,20,-1
 53.5 357 l 2,21,22
 53.5 386 53.5 386 74.5 407 c 128,-1,23
 95.5 428 95.5 428 124.5 428 c 128,-1,24
 153.5 428 153.5 428 175.5 407 c 0,25,26
 196.5 386 196.5 386 196.5 357 c 2,27,-1
 196.5 71 l 2,28,29
 196.5 41 196.5 41 175.5 21 c 0,30,16
 154.5 0 154.5 0 124.5 0 c 128,-1,17
EndSplineSet
Validated: 524321
EndChar

StartChar: slash
Encoding: 47 47 15
Width: 535
Flags: W
HStem: 0 21G<109.5 226> 0 21G<109.5 226> 980 20G<395.5 425> 980 20G<395.5 425>
VStem: 53.5 286<66.9697 406.342> 339.5 142<592.658 978.342>
LayerCount: 2
Fore
SplineSet
124.5 0 m 2,0,1
 94.5 0 94.5 0 74.5 21 c 0,2,3
 53.5 42 53.5 42 53.5 71 c 2,4,-1
 53.5 428 l 2,5,6
 53.5 488 53.5 488 95.5 529 c 0,7,8
 137.5 571 137.5 571 196.5 571 c 2,9,-1
 267.5 571 l 2,10,11
 297.5 571 297.5 571 318.5 592 c 128,-1,12
 339.5 613 339.5 613 339.5 643 c 2,13,-1
 339.5 928 l 2,14,15
 339.5 958 339.5 958 359.5 979 c 0,16,17
 380.5 1000 380.5 1000 410.5 1000 c 0,18,19
 439.5 1000 439.5 1000 460.5 979 c 128,-1,20
 481.5 958 481.5 958 481.5 928 c 2,21,-1
 481.5 500 l 2,22,23
 481.5 470 481.5 470 460.5 449 c 128,-1,24
 439.5 428 439.5 428 410.5 428 c 0,25,26
 380.5 428 380.5 428 359.5 407 c 128,-1,27
 338.5 386 338.5 386 339.5 357 c 2,28,-1
 339.5 143 l 2,29,30
 339.5 84 339.5 84 297.5 42 c 128,-1,31
 255.5 0 255.5 0 196.5 0 c 2,32,-1
 124.5 0 l 2,0,1
EndSplineSet
Validated: 524321
EndChar

StartChar: zero
Encoding: 48 48 16
Width: 821
Flags: W
HStem: 0 143<360.158 602.842> 857 143<360.158 602.842>
VStem: 53.5 286<164.658 835.342> 624.5 143<164.658 835.342>
LayerCount: 2
Fore
SplineSet
124.5 0 m 2,0,1
 94.5 0 94.5 0 74.5 21 c 0,2,3
 53.5 42 53.5 42 53.5 71 c 2,4,-1
 53.5 857 l 2,5,6
 53.5 916 53.5 916 95.5 958 c 128,-1,7
 137.5 1000 137.5 1000 196.5 1000 c 2,8,-1
 696.5 1000 l 2,9,10
 726.5 1000 726.5 1000 746.5 979 c 0,11,12
 767.5 958 767.5 958 767.5 928 c 2,13,-1
 767.5 143 l 2,14,15
 767.5 84 767.5 84 725.5 42 c 128,-1,16
 683.5 0 683.5 0 624.5 0 c 2,17,-1
 124.5 0 l 2,0,1
553.5 143 m 2,18,19
 582.5 143 582.5 143 603.5 164 c 128,-1,20
 624.5 185 624.5 185 624.5 214 c 2,21,-1
 624.5 786 l 2,22,23
 624.5 815 624.5 815 603.5 836 c 128,-1,24
 582.5 857 582.5 857 553.5 857 c 2,25,-1
 410.5 857 l 2,26,27
 380.5 857 380.5 857 359.5 836 c 128,-1,28
 338.5 815 338.5 815 339.5 786 c 2,29,-1
 339.5 214 l 2,30,31
 339.5 185 339.5 185 359.5 164 c 0,32,33
 380.5 143 380.5 143 410.5 143 c 2,34,-1
 553.5 143 l 2,18,19
EndSplineSet
Validated: 524321
EndChar

StartChar: one
Encoding: 49 49 17
Width: 821
Flags: W
HStem: 0 143<75.1582 317.842 503.158 747.151> 980 20G<310 425> 980 20G<310 425>
VStem: 196.5 285<735.658 932.633> 339.5 142<164.658 693.651>
LayerCount: 2
Fore
SplineSet
124.5 0 m 2,0,1
 94.5 0 94.5 0 74.5 21 c 0,2,3
 53.5 42 53.5 42 53.5 71 c 128,-1,4
 53.5 100 53.5 100 74.5 122 c 0,5,6
 95.5 143 95.5 143 124.5 143 c 2,7,-1
 267.5 143 l 2,8,9
 297.5 143 297.5 143 318.5 164 c 128,-1,10
 339.5 185 339.5 185 339.5 214 c 2,11,-1
 339.5 643 l 2,12,13
 339.5 673 339.5 673 318.5 693 c 0,14,15
 297.5 714 297.5 714 267.5 714 c 0,16,17
 238.5 714 238.5 714 217.5 735 c 128,-1,18
 196.5 756 196.5 756 196.5 786 c 2,19,-1
 196.5 857 l 2,20,21
 196.5 916 196.5 916 238.5 958 c 128,-1,22
 280.5 1000 280.5 1000 339.5 1000 c 2,23,-1
 410.5 1000 l 2,24,25
 439.5 1000 439.5 1000 460.5 979 c 128,-1,26
 481.5 958 481.5 958 481.5 928 c 2,27,-1
 481.5 214 l 2,28,29
 481.5 185 481.5 185 502.5 164 c 128,-1,30
 523.5 143 523.5 143 553.5 143 c 2,31,-1
 696.5 143 l 2,32,33
 726.5 143 726.5 143 746.5 122 c 0,34,35
 767.5 101 767.5 101 767.5 71 c 128,-1,36
 767.5 41 767.5 41 746.5 21 c 0,37,38
 725.5 0 725.5 0 696.5 0 c 2,39,-1
 124.5 0 l 2,0,1
EndSplineSet
Validated: 524289
EndChar

StartChar: two
Encoding: 50 50 18
Width: 821
Flags: W
HStem: 0 143<360.158 747.151> 286 142<360.158 602.842> 714 286<120.47 317.842> 857 143<360.158 602.842>
VStem: 624.5 143<449.658 835.342>
LayerCount: 2
Fore
SplineSet
124.5 0 m 2,0,1
 94.5 0 94.5 0 74.5 21 c 0,2,3
 53.5 42 53.5 42 53.5 71 c 2,4,-1
 53.5 286 l 2,5,6
 53.5 345 53.5 345 95.5 386 c 0,7,8
 137.5 428 137.5 428 196.5 428 c 2,9,-1
 553.5 428 l 2,10,11
 582.5 428 582.5 428 603.5 449 c 128,-1,12
 624.5 470 624.5 470 624.5 500 c 2,13,-1
 624.5 786 l 2,14,15
 624.5 815 624.5 815 603.5 836 c 128,-1,16
 582.5 857 582.5 857 553.5 857 c 2,17,-1
 410.5 857 l 2,18,19
 380.5 857 380.5 857 359.5 836 c 0,20,21
 339.454545455 815.954545455 339.454545455 815.954545455 339.454545455 788.619834711 c 0,22,23
 339.454545455 755.954545455 339.454545455 755.954545455 318.5 735 c 128,-1,24
 297.5 714 297.5 714 267.5 714 c 2,25,-1
 196.5 714 l 2,26,27
 137.5 714 137.5 714 95.5 756 c 128,-1,28
 53.5 798 53.5 798 53.5 857 c 128,-1,29
 53.5 916 53.5 916 95.5 958 c 128,-1,30
 137.5 1000 137.5 1000 196.5 1000 c 2,31,-1
 624.5 1000 l 2,32,33
 683.5 1000 683.5 1000 725.5 958 c 128,-1,34
 767.5 916 767.5 916 767.5 857 c 2,35,-1
 767.5 428 l 2,36,37
 767.5 369 767.5 369 725.5 327 c 0,38,39
 684.476744186 285.976744186 684.476744186 285.976744186 627.234991888 285.976744186 c 0,40,41
 625.872093023 285.976744186 625.872093023 285.976744186 624.5 286 c 2,42,-1
 410.5 286 l 2,43,44
 380.5 286 380.5 286 359.5 265 c 0,45,46
 339.454545455 244.954545455 339.454545455 244.954545455 339.454545455 216.708677686 c 0,47,48
 339.454545455 185.047727273 339.454545455 185.047727273 359.5 164 c 0,49,50
 380.5 143 380.5 143 410.5 143 c 2,51,-1
 696.5 143 l 2,52,53
 726.5 143 726.5 143 746.5 122 c 0,54,55
 767.5 101 767.5 101 767.5 71 c 128,-1,56
 767.5 41 767.5 41 746.5 21 c 0,57,58
 725.5 0 725.5 0 696.5 0 c 2,59,-1
 124.5 0 l 2,0,1
EndSplineSet
Validated: 524289
EndChar

StartChar: three
Encoding: 51 51 19
Width: 821
Flags: W
HStem: 0 143<75.1582 602.842> 428 143<218.158 602.842> 714 286<120.47 317.842> 857 143<360.158 602.842>
VStem: 624.5 143<164.658 264.342 592.689 835.342>
LayerCount: 2
Fore
SplineSet
267.5 428 m 2,0,1
 238.5 428 238.5 428 217.5 449 c 128,-1,2
 196.5 470 196.5 470 196.5 500 c 0,3,4
 196.5 529 196.5 529 217.5 550 c 128,-1,5
 238.5 571 238.5 571 267.5 571 c 2,6,-1
 553.5 571 l 2,7,8
 582.5 571 582.5 571 603.5 592 c 128,-1,9
 624.5 613 624.5 613 624.5 643 c 2,10,-1
 624.5 786 l 2,11,12
 624.5 815 624.5 815 603.5 836 c 128,-1,13
 582.5 857 582.5 857 553.5 857 c 2,14,-1
 410.5 857 l 2,15,16
 380.5 857 380.5 857 359.5 836 c 0,17,18
 339.454545455 815.954545455 339.454545455 815.954545455 339.454545455 788.619834711 c 0,19,20
 339.454545455 755.954545455 339.454545455 755.954545455 318.5 735 c 128,-1,21
 297.5 714 297.5 714 267.5 714 c 2,22,-1
 196.5 714 l 2,23,24
 137.5 714 137.5 714 95.5 756 c 128,-1,25
 53.5 798 53.5 798 53.5 857 c 128,-1,26
 53.5 916 53.5 916 95.5 958 c 128,-1,27
 137.5 1000 137.5 1000 196.5 1000 c 2,28,-1
 624.5 1000 l 2,29,30
 683.5 1000 683.5 1000 725.5 958 c 128,-1,31
 767.5 916 767.5 916 767.5 857 c 2,32,-1
 767.5 643 l 2,33,34
 767.5 614 767.5 614 746.5 592 c 0,35,36
 725.5 571 725.5 571 696.5 571 c 128,-1,37
 667.5 571 667.5 571 645.5 550 c 0,38,39
 624.5 529 624.5 529 624.5 500 c 0,40,41
 624.5 470 624.5 470 603.5 449 c 128,-1,42
 582.5 428 582.5 428 553.5 428 c 2,43,-1
 267.5 428 l 2,0,1
124.5 0 m 2,44,45
 94.5 0 94.5 0 74.5 21 c 0,46,47
 53.5 42 53.5 42 53.5 71 c 128,-1,48
 53.5 100 53.5 100 74.5 122 c 0,49,50
 95.5 143 95.5 143 124.5 143 c 2,51,-1
 553.5 143 l 2,52,53
 582.5 143 582.5 143 603.5 164 c 128,-1,54
 624.5 185 624.5 185 624.5 214 c 0,55,56
 624.5 244 624.5 244 645.5 265 c 128,-1,57
 666.5 286 666.5 286 696.5 286 c 128,-1,58
 726.5 286 726.5 286 746.5 265 c 0,59,60
 767.5 244 767.5 244 767.5 214 c 2,61,-1
 767.5 143 l 2,62,63
 767.5 84 767.5 84 725.5 42 c 128,-1,64
 683.5 0 683.5 0 624.5 0 c 2,65,-1
 124.5 0 l 2,44,45
EndSplineSet
Validated: 524289
EndChar

StartChar: four
Encoding: 52 52 20
Width: 821
Flags: W
HStem: 0 428<646.189 747.151> 286 714<120.789 272.53> 286 142<339.5 624.5>
VStem: 53.5 286<428 933.03> 624.5 143<21.6582 286>
LayerCount: 2
Fore
SplineSet
696.5 0 m 128,-1,1
 667.5 0 667.5 0 645.5 21 c 0,2,3
 624.5 42 624.5 42 624.5 71 c 2,4,-1
 624.5 286 l 1,5,-1
 124.5 286 l 2,6,7
 94.5 286 94.5 286 74.5 306 c 0,8,9
 53.5 327 53.5 327 53.5 357 c 2,10,-1
 53.5 857 l 2,11,12
 53.5 916 53.5 916 95.5 958 c 128,-1,13
 137.5 1000 137.5 1000 196.5 1000 c 128,-1,14
 255.5 1000 255.5 1000 297.5 958 c 128,-1,15
 339.5 916 339.5 916 339.5 857 c 2,16,-1
 339.5 428 l 1,17,-1
 696.5 428 l 2,18,19
 726.5 428 726.5 428 746.5 407 c 0,20,21
 767.5 386 767.5 386 767.5 357 c 2,22,-1
 767.5 71 l 2,23,24
 767.5 41 767.5 41 746.5 21 c 0,25,0
 725.5 0 725.5 0 696.5 0 c 128,-1,1
EndSplineSet
Validated: 524289
EndChar

StartChar: five
Encoding: 53 53 21
Width: 821
Flags: W
HStem: 0 143<360.158 602.842> 143 143<646.189 745.842> 428 143<360.158 745.842> 857 143<360.158 745.842>
VStem: 53.5 286<164.658 218.633 592.689 835.342> 624.5 143<164.658 264.342>
LayerCount: 2
Fore
SplineSet
124.5 428 m 2,0,1
 94.5 428 94.5 428 74.5 449 c 0,2,3
 53.5 470 53.5 470 53.5 500 c 2,4,-1
 53.5 928 l 2,5,6
 53.5 957 53.5 957 74.5 979 c 0,7,8
 95.5 1000 95.5 1000 124.5 1000 c 2,9,-1
 696.5 1000 l 2,10,11
 726.5 1000 726.5 1000 746.5 979 c 0,12,13
 767.5 958 767.5 958 767.5 928 c 0,14,15
 767.5 899 767.5 899 746.5 878 c 128,-1,16
 725.5 857 725.5 857 696.5 857 c 2,17,-1
 410.5 857 l 2,18,19
 380.5 857 380.5 857 359.5 836 c 128,-1,20
 338.5 815 338.5 815 339.5 786 c 2,21,-1
 339.5 643 l 2,22,23
 339.5 614 339.5 614 359.5 592 c 0,24,25
 380.5 571 380.5 571 410.5 571 c 2,26,-1
 696.5 571 l 2,27,28
 726.5 571 726.5 571 746.5 550 c 0,29,30
 767.5 529 767.5 529 767.5 500 c 0,31,32
 767.5 470 767.5 470 746.5 449 c 128,-1,33
 725.5 428 725.5 428 696.5 428 c 2,34,-1
 124.5 428 l 2,0,1
196.5 0 m 2,35,36
 137.5 0 137.5 0 95.5 42 c 128,-1,37
 53.5 84 53.5 84 53.5 143 c 128,-1,38
 53.5 202 53.5 202 95.5 244 c 128,-1,39
 137.5 286 137.5 286 196.5 286 c 2,40,-1
 267.5 286 l 2,41,42
 297.5 286 297.5 286 318.5 265 c 128,-1,43
 339.5 244 339.5 244 339.5 214 c 0,44,45
 339.5 185 339.5 185 359.5 164 c 0,46,47
 380.5 143 380.5 143 410.5 143 c 2,48,-1
 553.5 143 l 2,49,50
 582.5 143 582.5 143 603.5 164 c 128,-1,51
 624.5 185 624.5 185 624.5 214 c 0,52,53
 624.5 244 624.5 244 645.5 265 c 128,-1,54
 666.5 286 666.5 286 696.5 286 c 128,-1,55
 726.5 286 726.5 286 746.5 265 c 0,56,57
 767.5 244 767.5 244 767.5 214 c 0,58,59
 767.5 185 767.5 185 746.5 164 c 128,-1,60
 725.5 143 725.5 143 696.5 143 c 128,-1,61
 667.5 143 667.5 143 645.5 122 c 0,62,63
 624.5 101 624.5 101 624.5 71 c 128,-1,64
 624.5 41 624.5 41 603.5 21 c 0,65,66
 582.5 0 582.5 0 553.5 0 c 2,67,-1
 196.5 0 l 2,35,36
EndSplineSet
Validated: 524321
EndChar

StartChar: six
Encoding: 54 54 22
Width: 821
Flags: W
HStem: 0 143<360.158 602.842> 428 143<360.158 602.842> 714 286<120.47 317.842> 857 143<360.158 745.842>
VStem: 53.5 286<164.658 406.342 780.97 835.372> 624.5 143<164.658 406.342>
LayerCount: 2
Fore
SplineSet
196.5 714 m 2,0,1
 137.5 714 137.5 714 95.5 756 c 128,-1,2
 53.5 798 53.5 798 53.5 857 c 128,-1,3
 53.5 916 53.5 916 95.5 958 c 128,-1,4
 137.5 1000 137.5 1000 196.5 1000 c 2,5,-1
 696.5 1000 l 2,6,7
 726.5 1000 726.5 1000 746.5 979 c 0,8,9
 767.5 958 767.5 958 767.5 928 c 0,10,11
 767.5 899 767.5 899 746.5 878 c 128,-1,12
 725.5 857 725.5 857 696.5 857 c 2,13,-1
 410.5 857 l 2,14,15
 380.5 857 380.5 857 359.5 836 c 0,16,17
 339.454545455 815.954545455 339.454545455 815.954545455 339.454545455 788.619834711 c 0,18,19
 339.454545455 755.954545455 339.454545455 755.954545455 318.5 735 c 128,-1,20
 297.5 714 297.5 714 267.5 714 c 2,21,-1
 196.5 714 l 2,0,1
124.5 0 m 2,22,23
 94.5 0 94.5 0 74.5 21 c 0,24,25
 53.5 42 53.5 42 53.5 71 c 2,26,-1
 53.5 500 l 2,27,28
 53.5 530 53.5 530 74.5 550 c 0,29,30
 95.5 571 95.5 571 124.5 571 c 2,31,-1
 624.5 571 l 2,32,33
 683.5 571 683.5 571 725.5 529 c 128,-1,34
 767.5 487 767.5 487 767.5 428 c 2,35,-1
 767.5 143 l 2,36,37
 767.5 84 767.5 84 725.5 42 c 128,-1,38
 683.5 0 683.5 0 624.5 0 c 2,39,-1
 124.5 0 l 2,22,23
553.5 143 m 2,40,41
 582.5 143 582.5 143 603.5 164 c 128,-1,42
 624.5 185 624.5 185 624.5 214 c 2,43,-1
 624.5 357 l 2,44,45
 624.5 386 624.5 386 603.5 407 c 128,-1,46
 582.5 428 582.5 428 553.5 428 c 2,47,-1
 410.5 428 l 2,48,49
 380.5 428 380.5 428 359.5 407 c 128,-1,50
 338.5 386 338.5 386 339.5 357 c 2,51,-1
 339.5 214 l 2,52,53
 339.5 185 339.5 185 359.5 164 c 0,54,55
 380.5 143 380.5 143 410.5 143 c 2,56,-1
 553.5 143 l 2,40,41
EndSplineSet
Validated: 524321
EndChar

StartChar: seven
Encoding: 55 55 23
Width: 821
Flags: W
HStem: 0 21G<682 711> 0 21G<682 711> 714 286<120.47 317.842> 857 143<360.158 602.842>
VStem: 624.5 143<21.6582 835.342>
LayerCount: 2
Fore
SplineSet
696.5 0 m 128,-1,1
 667.5 0 667.5 0 645.5 21 c 0,2,3
 624.5 42 624.5 42 624.5 71 c 2,4,-1
 624.5 786 l 2,5,6
 624.5 815 624.5 815 603.5 836 c 128,-1,7
 582.5 857 582.5 857 553.5 857 c 2,8,-1
 410.5 857 l 2,9,10
 380.5 857 380.5 857 359.5 836 c 0,11,12
 339.454545455 815.954545455 339.454545455 815.954545455 339.454545455 788.619834711 c 0,13,14
 339.454545455 755.954545455 339.454545455 755.954545455 318.5 735 c 128,-1,15
 297.5 714 297.5 714 267.5 714 c 2,16,-1
 196.5 714 l 2,17,18
 137.5 714 137.5 714 95.5 756 c 128,-1,19
 53.5 798 53.5 798 53.5 857 c 2,20,-1
 53.5 928 l 2,21,22
 53.5 957 53.5 957 74.5 979 c 0,23,24
 95.5 1000 95.5 1000 124.5 1000 c 2,25,-1
 696.5 1000 l 2,26,27
 726.5 1000 726.5 1000 746.5 979 c 0,28,29
 767.5 958 767.5 958 767.5 928 c 2,30,-1
 767.5 71 l 2,31,32
 767.5 41 767.5 41 746.5 21 c 0,33,0
 725.5 0 725.5 0 696.5 0 c 128,-1,1
EndSplineSet
Validated: 524289
EndChar

StartChar: eight
Encoding: 56 56 24
Width: 821
Flags: W
HStem: 0 143<360.158 602.842> 428 143<360.158 602.842> 857 143<360.158 602.842>
VStem: 53.5 286<164.658 406.342 592.689 835.342> 624.5 143<164.658 406.342 592.689 835.342>
LayerCount: 2
Fore
SplineSet
124.5 0 m 2,0,1
 94.5 0 94.5 0 74.5 21 c 0,2,3
 53.5 42 53.5 42 53.5 71 c 2,4,-1
 53.5 357 l 2,5,6
 53.5 386 53.5 386 74.5 407 c 128,-1,7
 95.5 428 95.5 428 124.5 428 c 128,-1,8
 153.5 428 153.5 428 175.5 449 c 0,9,10
 196.5 470 196.5 470 196.5 500 c 0,11,12
 196.5 529 196.5 529 175.5 550 c 128,-1,13
 154.5 571 154.5 571 124.5 571 c 128,-1,14
 94.5 571 94.5 571 74.5 592 c 0,15,16
 53.5 613 53.5 613 53.5 643 c 2,17,-1
 53.5 857 l 2,18,19
 53.5 916 53.5 916 95.5 958 c 128,-1,20
 137.5 1000 137.5 1000 196.5 1000 c 2,21,-1
 696.5 1000 l 2,22,23
 726.5 1000 726.5 1000 746.5 979 c 0,24,25
 767.5 958 767.5 958 767.5 928 c 2,26,-1
 767.5 643 l 2,27,28
 767.5 614 767.5 614 746.5 592 c 0,29,30
 725.5 571 725.5 571 696.5 571 c 128,-1,31
 667.5 571 667.5 571 645.5 550 c 0,32,33
 624.5 529 624.5 529 624.5 500 c 0,34,35
 624.5 470 624.5 470 603.5 449 c 128,-1,36
 582.5 428 582.5 428 553.5 428 c 2,37,-1
 410.5 428 l 2,38,39
 380.5 428 380.5 428 359.5 407 c 128,-1,40
 338.5 386 338.5 386 339.5 357 c 2,41,-1
 339.5 214 l 2,42,43
 339.5 185 339.5 185 359.5 164 c 0,44,45
 380.5 143 380.5 143 410.5 143 c 2,46,-1
 553.5 143 l 2,47,48
 582.5 143 582.5 143 603.5 164 c 128,-1,49
 624.5 185 624.5 185 624.5 214 c 2,50,-1
 624.5 357 l 2,51,52
 624.5 386 624.5 386 645.5 407 c 128,-1,53
 666.5 428 666.5 428 696.5 428 c 128,-1,54
 726.5 428 726.5 428 746.5 407 c 0,55,56
 767.5 386 767.5 386 767.5 357 c 2,57,-1
 767.5 143 l 2,58,59
 767.5 84 767.5 84 725.5 42 c 128,-1,60
 683.5 0 683.5 0 624.5 0 c 2,61,-1
 124.5 0 l 2,0,1
553.5 571 m 2,62,63
 582.5 571 582.5 571 603.5 592 c 128,-1,64
 624.5 613 624.5 613 624.5 643 c 2,65,-1
 624.5 786 l 2,66,67
 624.5 815 624.5 815 603.5 836 c 128,-1,68
 582.5 857 582.5 857 553.5 857 c 2,69,-1
 410.5 857 l 2,70,71
 380.5 857 380.5 857 359.5 836 c 128,-1,72
 338.5 815 338.5 815 339.5 786 c 2,73,-1
 339.5 643 l 2,74,75
 339.5 614 339.5 614 359.5 592 c 0,76,77
 380.5 571 380.5 571 410.5 571 c 2,78,-1
 553.5 571 l 2,62,63
EndSplineSet
Validated: 524321
EndChar

StartChar: nine
Encoding: 57 57 25
Width: 821
Flags: W
HStem: 0 143<75.1582 602.842> 428 143<360.158 602.842> 857 143<360.158 602.842>
VStem: 53.5 286<592.689 835.342> 624.5 143<164.658 406.342 592.689 835.342>
LayerCount: 2
Fore
SplineSet
196.5 428 m 2,0,1
 137.5 428 137.5 428 95.5 470 c 128,-1,2
 53.5 512 53.5 512 53.5 571 c 2,3,-1
 53.5 857 l 2,4,5
 53.5 916 53.5 916 95.5 958 c 128,-1,6
 137.5 1000 137.5 1000 196.5 1000 c 2,7,-1
 696.5 1000 l 2,8,9
 726.5 1000 726.5 1000 746.5 979 c 0,10,11
 767.5 958 767.5 958 767.5 928 c 2,12,-1
 767.5 643 l 2,13,14
 767.5 614 767.5 614 746.5 592 c 0,15,16
 725.5 571 725.5 571 696.5 571 c 128,-1,17
 667.5 571 667.5 571 645.5 550 c 0,18,19
 624.5 529 624.5 529 624.5 500 c 0,20,21
 624.5 470 624.5 470 603.5 449 c 128,-1,22
 582.5 428 582.5 428 553.5 428 c 2,23,-1
 196.5 428 l 2,0,1
553.5 571 m 2,24,25
 582.5 571 582.5 571 603.5 592 c 128,-1,26
 624.5 613 624.5 613 624.5 643 c 2,27,-1
 624.5 786 l 2,28,29
 624.5 815 624.5 815 603.5 836 c 128,-1,30
 582.5 857 582.5 857 553.5 857 c 2,31,-1
 410.5 857 l 2,32,33
 380.5 857 380.5 857 359.5 836 c 128,-1,34
 338.5 815 338.5 815 339.5 786 c 2,35,-1
 339.5 643 l 2,36,37
 339.5 614 339.5 614 359.5 592 c 0,38,39
 380.5 571 380.5 571 410.5 571 c 2,40,-1
 553.5 571 l 2,24,25
124.5 0 m 2,41,42
 94.5 0 94.5 0 74.5 21 c 0,43,44
 53.5 42 53.5 42 53.5 71 c 128,-1,45
 53.5 100 53.5 100 74.5 122 c 0,46,47
 95.5 143 95.5 143 124.5 143 c 2,48,-1
 553.5 143 l 2,49,50
 582.5 143 582.5 143 603.5 164 c 128,-1,51
 624.5 185 624.5 185 624.5 214 c 2,52,-1
 624.5 357 l 2,53,54
 624.5 386 624.5 386 645.5 407 c 128,-1,55
 666.5 428 666.5 428 696.5 428 c 128,-1,56
 726.5 428 726.5 428 746.5 407 c 0,57,58
 767.5 386 767.5 386 767.5 357 c 2,59,-1
 767.5 143 l 2,60,61
 767.5 84 767.5 84 725.5 42 c 128,-1,62
 683.5 0 683.5 0 624.5 0 c 2,63,-1
 124.5 0 l 2,41,42
EndSplineSet
Validated: 524321
EndChar

StartChar: colon
Encoding: 58 58 26
Width: 678
Flags: W
HStem: 0 286<360.128 557.935> 0 143<75.1582 317.842>
LayerCount: 2
Fore
SplineSet
124.5 0 m 2,0,1
 94.5 0 94.5 0 74.5 21 c 0,2,3
 53.5 42 53.5 42 53.5 71 c 128,-1,4
 53.5 100 53.5 100 74.5 122 c 0,5,6
 95.5 143 95.5 143 124.5 143 c 2,7,-1
 267.5 143 l 2,8,9
 297.5 143 297.5 143 318.5 164 c 128,-1,10
 339.5 185 339.5 185 339.5 214 c 0,11,12
 339.5 244 339.5 244 318.5 265 c 128,-1,13
 297.5 286 297.5 286 267.5 286 c 2,14,-1
 196.5 286 l 2,15,16
 137.5 286 137.5 286 95.5 327 c 0,17,18
 53.5 369 53.5 369 53.5 428 c 2,19,-1
 53.5 500 l 2,20,21
 53.5 530 53.5 530 74.5 550 c 0,22,23
 95.5 571 95.5 571 124.5 571 c 2,24,-1
 196.5 571 l 2,25,26
 255.5 571 255.5 571 297.5 529 c 128,-1,27
 339.5 487 339.5 487 339.5 428 c 2,28,-1
 339.5 357 l 2,29,30
 339.5 327 339.5 327 359.5 306 c 0,31,32
 379.545454545 285.954545455 379.545454545 285.954545455 407.791322314 285.954545455 c 0,33,34
 409.136363636 285.954545455 409.136363636 285.954545455 410.5 286 c 2,35,-1
 481.5 286 l 2,36,37
 541.5 286 541.5 286 582.5 244 c 0,38,39
 624.5 202 624.5 202 624.5 143 c 2,40,-1
 624.5 71 l 2,41,42
 624.5 41 624.5 41 603.5 21 c 0,43,44
 582.5 0 582.5 0 553.5 0 c 2,45,-1
 124.5 0 l 2,0,1
EndSplineSet
Validated: 524289
EndChar

StartChar: semicolon
Encoding: 59 59 27
Width: 392
Flags: W
HStem: 0 21G<166.5 225.5> 0 21G<166.5 225.5> 980 20G<109.5 138.5> 980 20G<109.5 138.5>
VStem: 53 286<66.9697 549.342> 53 143<592.689 978.342>
LayerCount: 2
Fore
SplineSet
196 0 m 128,-1,1
 137 0 137 0 95 42 c 128,-1,2
 53 84 53 84 53 143 c 2,3,-1
 53 928 l 2,4,5
 53 958 53 958 74 979 c 128,-1,6
 95 1000 95 1000 124 1000 c 128,-1,7
 153 1000 153 1000 175 979 c 0,8,9
 196 958 196 958 196 928 c 2,10,-1
 196 643 l 2,11,12
 196 614 196 614 217 592 c 0,13,14
 238 571 238 571 267 571 c 0,15,16
 297 571 297 571 318 550 c 128,-1,17
 339 529 339 529 339 500 c 2,18,-1
 339 143 l 2,19,20
 339 84 339 84 297 42 c 128,-1,0
 255 0 255 0 196 0 c 128,-1,1
EndSplineSet
Validated: 1
EndChar

StartChar: question
Encoding: 63 63 28
Width: 963
Flags: W
HStem: 0 21G<538 653.5> 0 21G<538 653.5> 857 143<359.658 745.342>
VStem: 53 286<637.97 835.342> 53 143<878.658 978.342> 338.955 428.045<878.658 978.339> 767 143<306.658 835.342>
LayerCount: 2
Fore
SplineSet
553 0 m 2,0,1
 523 0 523 0 502 21 c 128,-1,2
 481 42 481 42 481 71 c 2,3,-1
 481 143 l 2,4,5
 481 202 481 202 523 244 c 128,-1,6
 565 286 565 286 624 286 c 2,7,-1
 696 286 l 2,8,9
 726 286 726 286 746 306 c 0,10,11
 767 327 767 327 767 357 c 2,12,-1
 767 786 l 2,13,14
 767 815 767 815 746 836 c 128,-1,15
 725 857 725 857 696 857 c 2,16,-1
 410 857 l 2,17,18
 380 857 380 857 359 878 c 0,19,20
 338.954545455 898.045454545 338.954545455 898.045454545 338.954545455 925.380165289 c 0,21,22
 338.954545455 957.952272727 338.954545455 957.952272727 359 979 c 0,23,24
 380 1000 380 1000 410 1000 c 2,25,-1
 696 1000 l 2,26,27
 726 1000 726 1000 746 979 c 0,28,29
 767 958 767 958 767 928 c 0,30,31
 767 899 767 899 788 878 c 128,-1,32
 809 857 809 857 839 857 c 0,33,34
 868 857 868 857 889 836 c 128,-1,35
 910 815 910 815 910 786 c 2,36,-1
 910 357 l 2,37,38
 910 327 910 327 889 306 c 0,39,40
 868.954545455 285.954545455 868.954545455 285.954545455 841.619834711 285.954545455 c 0,41,42
 840.318181818 285.954545455 840.318181818 285.954545455 839 286 c 0,43,44
 809 286 809 286 788 265 c 128,-1,45
 767 244 767 244 767 214 c 2,46,-1
 767 143 l 2,47,48
 767 84 767 84 725 42 c 128,-1,49
 683 0 683 0 624 0 c 2,50,-1
 553 0 l 2,0,1
196 571 m 2,51,52
 137 571 137 571 95 613 c 128,-1,53
 53 655 53 655 53 714 c 2,54,-1
 53 928 l 2,55,56
 53 958 53 958 74 979 c 128,-1,57
 95 1000 95 1000 124 1000 c 128,-1,58
 153 1000 153 1000 175 979 c 0,59,60
 196 958 196 958 196 928 c 0,61,62
 196 899 196 899 217 878 c 128,-1,63
 238 857 238 857 267 857 c 0,64,65
 297 857 297 857 318 836 c 128,-1,66
 339 815 339 815 339 786 c 2,67,-1
 339 643 l 2,68,69
 339 614 339 614 318 592 c 0,70,71
 297 571 297 571 267 571 c 2,72,-1
 196 571 l 2,51,52
EndSplineSet
Validated: 524289
EndChar

StartChar: A
Encoding: 65 65 29
Width: 821
Flags: W
HStem: 0 21G<167 226 682 711> 0 21G<167 226 682 711> 286 142<360.158 602.842> 571 143<360.158 602.842> 980 20G<167 226 681.5 711.5> 980 20G<167 226 681.5 711.5>
VStem: 53.5 286<66.9697 264.342 735.658 933.03> 624.5 143<21.6582 264.342 735.658 978.342>
LayerCount: 2
Fore
SplineSet
124.5 571 m 2,0,1
 94.5 571 94.5 571 74.5 592 c 0,2,3
 53.5 613 53.5 613 53.5 643 c 2,4,-1
 53.5 857 l 2,5,6
 53.5 916 53.5 916 95.5 958 c 128,-1,7
 137.5 1000 137.5 1000 196.5 1000 c 128,-1,8
 255.5 1000 255.5 1000 297.5 958 c 128,-1,9
 339.5 916 339.5 916 339.5 857 c 2,10,-1
 339.5 786 l 2,11,12
 339.5 756 339.5 756 359.5 735 c 0,13,14
 380.5 714 380.5 714 410.5 714 c 2,15,-1
 553.5 714 l 2,16,17
 582.5 714 582.5 714 603.5 735 c 128,-1,18
 624.5 756 624.5 756 624.5 786 c 2,19,-1
 624.5 928 l 2,20,21
 624.5 958 624.5 958 645.5 979 c 128,-1,22
 666.5 1000 666.5 1000 696.5 1000 c 128,-1,23
 726.5 1000 726.5 1000 746.5 979 c 0,24,25
 767.5 958 767.5 958 767.5 928 c 2,26,-1
 767.5 714 l 2,27,28
 767.5 655 767.5 655 725.5 613 c 128,-1,29
 683.5 571 683.5 571 624.5 571 c 2,30,-1
 124.5 571 l 2,0,1
196.5 0 m 128,-1,32
 137.5 0 137.5 0 95.5 42 c 128,-1,33
 53.5 84 53.5 84 53.5 143 c 2,34,-1
 53.5 357 l 2,35,36
 53.5 386 53.5 386 74.5 407 c 128,-1,37
 95.5 428 95.5 428 124.5 428 c 2,38,-1
 624.5 428 l 2,39,40
 683.5 428 683.5 428 725.5 386 c 128,-1,41
 767.5 344 767.5 344 767.5 286 c 2,42,-1
 767.5 71 l 2,43,44
 767.5 41 767.5 41 746.5 21 c 0,45,46
 725.5 0 725.5 0 696.5 0 c 128,-1,47
 667.5 0 667.5 0 645.5 21 c 0,48,49
 624.5 42 624.5 42 624.5 71 c 2,50,-1
 624.5 214 l 2,51,52
 624.5 244 624.5 244 603.5 265 c 128,-1,53
 582.5 286 582.5 286 553.5 286 c 2,54,-1
 410.5 286 l 2,55,56
 380.5 286 380.5 286 359.5 265 c 128,-1,57
 338.5 244 338.5 244 339.5 214 c 2,58,-1
 339.5 143 l 2,59,60
 339.5 84 339.5 84 297.5 42 c 128,-1,31
 255.5 0 255.5 0 196.5 0 c 128,-1,32
EndSplineSet
Validated: 524321
EndChar

StartChar: B
Encoding: 66 66 30
Width: 963
Flags: W
HStem: 0 143<359.658 746.651> 428 143<359.658 745.342> 857 143<359.658 745.342>
VStem: 53 286<164.658 361.109 637.97 835.342> 767 143<163.349 406.342 592.689 835.342>
LayerCount: 2
Fore
SplineSet
196 571 m 128,-1,1
 137 571 137 571 95 613 c 128,-1,2
 53 655 53 655 53 714 c 2,3,-1
 53 857 l 2,4,5
 53 916 53 916 95 958 c 128,-1,6
 137 1000 137 1000 196 1000 c 2,7,-1
 767 1000 l 2,8,9
 827 1000 827 1000 868 958 c 0,10,11
 910 916 910 916 910 857 c 2,12,-1
 910 643 l 2,13,14
 910 614 910 614 889 592 c 0,15,16
 868 571 868 571 839 571 c 0,17,18
 809 571 809 571 788 592 c 128,-1,19
 767 613 767 613 767 643 c 2,20,-1
 767 786 l 2,21,22
 767 815 767 815 746 836 c 128,-1,23
 725 857 725 857 696 857 c 2,24,-1
 410 857 l 2,25,26
 380 857 380 857 359 836 c 128,-1,27
 338 815 338 815 339 786 c 2,28,-1
 339 714 l 2,29,30
 339 655 339 655 297 613 c 128,-1,0
 255 571 255 571 196 571 c 128,-1,1
410 428 m 2,31,32
 380 428 380 428 359 449 c 0,33,34
 338.954545455 469.045454545 338.954545455 469.045454545 338.954545455 497.291322314 c 0,35,36
 338.954545455 528.952272727 338.954545455 528.952272727 359 550 c 0,37,38
 380 571 380 571 410 571 c 2,39,-1
 696 571 l 2,40,41
 726 571 726 571 746 550 c 0,42,43
 767 529 767 529 767 500 c 0,44,45
 767 470 767 470 746 449 c 128,-1,46
 725 428 725 428 696 428 c 2,47,-1
 410 428 l 2,31,32
196 0 m 2,48,49
 137 0 137 0 95 42 c 128,-1,50
 53 84 53 84 53 143 c 2,51,-1
 53 286 l 2,52,53
 53 345 53 345 95 386 c 0,54,55
 137 428 137 428 196 428 c 128,-1,56
 255 428 255 428 297 386 c 128,-1,57
 339 344 339 344 339 286 c 2,58,-1
 339 214 l 2,59,60
 339 185 339 185 359 164 c 0,61,62
 380 143 380 143 410 143 c 2,63,-1
 696 143 l 2,64,65
 726 143 726 143 746 164 c 0,66,67
 767 185 767 185 767 214 c 2,68,-1
 767 357 l 2,69,70
 767 386 767 386 788 407 c 128,-1,71
 809 428 809 428 839 428 c 0,72,73
 868 428 868 428 889 407 c 128,-1,74
 910 386 910 386 910 357 c 2,75,-1
 910 143 l 2,76,77
 910 84 910 84 868 42 c 128,-1,78
 826 0 826 0 767 0 c 2,79,-1
 196 0 l 2,48,49
EndSplineSet
Validated: 524321
EndChar

StartChar: C
Encoding: 67 67 31
Width: 963
Flags: W
HStem: 0 21G<737.5 796.5> 0 21G<737.5 796.5> 428 572<119.97 272.03> 428 286<502.658 602.342>
VStem: 53 286<494.97 933.03> 481 143<449.658 692.342> 767 143<306.658 692.342>
LayerCount: 2
Fore
SplineSet
196 428 m 128,-1,1
 137 428 137 428 95 470 c 128,-1,2
 53 512 53 512 53 571 c 2,3,-1
 53 857 l 2,4,5
 53 916 53 916 95 958 c 128,-1,6
 137 1000 137 1000 196 1000 c 128,-1,7
 255 1000 255 1000 297 958 c 128,-1,8
 339 916 339 916 339 857 c 2,9,-1
 339 571 l 2,10,11
 339 511 339 511 297 470 c 0,12,0
 255 428 255 428 196 428 c 128,-1,1
767 0 m 128,-1,14
 708 0 708 0 666 42 c 128,-1,15
 624 84 624 84 624 143 c 2,16,-1
 624 214 l 2,17,18
 624 244 624 244 645 265 c 128,-1,19
 666 286 666 286 696 286 c 128,-1,20
 726 286 726 286 746 306 c 0,21,22
 767 327 767 327 767 357 c 2,23,-1
 767 643 l 2,24,25
 767 673 767 673 788 693 c 0,26,27
 809 714 809 714 839 714 c 0,28,29
 868 714 868 714 889 693 c 128,-1,30
 910 672 910 672 910 643 c 2,31,-1
 910 143 l 2,32,33
 910 84 910 84 868 42 c 128,-1,13
 826 0 826 0 767 0 c 128,-1,14
553 428 m 0,34,35
 523 428 523 428 502 449 c 128,-1,36
 481 470 481 470 481 500 c 2,37,-1
 481 643 l 2,38,39
 481 673 481 673 502 693 c 0,40,41
 523 714 523 714 553 714 c 0,42,43
 582 714 582 714 603 693 c 128,-1,44
 624 672 624 672 624 643 c 2,45,-1
 624 500 l 2,46,47
 624 470 624 470 603 449 c 128,-1,48
 582 428 582 428 553 428 c 0,34,35
EndSplineSet
Validated: 1
EndChar

StartChar: D
Encoding: 68 68 32
Width: 963
Flags: W
HStem: 0 21G<594 653.5> 0 21G<594 653.5> 428 143<359.658 602.342> 714 286<119.97 317.342> 857 143<359.658 745.342>
VStem: 481 286<66.9697 264.342> 624 143<306.658 406.342> 767 143<592.689 835.342>
LayerCount: 2
Fore
SplineSet
839 571 m 0,0,1
 809 571 809 571 788 592 c 128,-1,2
 767 613 767 613 767 643 c 2,3,-1
 767 786 l 2,4,5
 767 815 767 815 746 836 c 128,-1,6
 725 857 725 857 696 857 c 2,7,-1
 410 857 l 2,8,9
 380 857 380 857 359 836 c 0,10,11
 338.954545455 815.954545455 338.954545455 815.954545455 338.954545455 788.619834711 c 0,12,13
 338.954545455 755.954545455 338.954545455 755.954545455 318 735 c 128,-1,14
 297 714 297 714 267 714 c 2,15,-1
 196 714 l 2,16,17
 137 714 137 714 95 756 c 128,-1,18
 53 798 53 798 53 857 c 2,19,-1
 53 928 l 2,20,21
 53 957 53 957 74 979 c 0,22,23
 95 1000 95 1000 124 1000 c 2,24,-1
 839 1000 l 2,25,26
 868 1000 868 1000 889 979 c 128,-1,27
 910 958 910 958 910 928 c 2,28,-1
 910 643 l 2,29,30
 910 614 910 614 889 592 c 0,31,32
 868 571 868 571 839 571 c 0,0,1
624 0 m 0,33,34
 564 0 564 0 523 42 c 0,35,36
 481 84 481 84 481 143 c 2,37,-1
 481 214 l 2,38,39
 481 244 481 244 502 265 c 128,-1,40
 523 286 523 286 553 286 c 0,41,42
 582 286 582 286 603 306 c 0,43,44
 624 327 624 327 624 357 c 0,45,46
 624 386 624 386 603 407 c 128,-1,47
 582 428 582 428 553 428 c 2,48,-1
 410 428 l 2,49,50
 380 428 380 428 359 449 c 0,51,52
 338.954545455 469.045454545 338.954545455 469.045454545 338.954545455 497.291322314 c 0,53,54
 338.954545455 528.952272727 338.954545455 528.952272727 359 550 c 0,55,56
 380 571 380 571 410 571 c 2,57,-1
 624 571 l 2,58,59
 683 571 683 571 725 529 c 128,-1,60
 767 487 767 487 767 428 c 2,61,-1
 767 143 l 2,62,63
 767 84 767 84 725 42 c 128,-1,64
 683 0 683 0 624 0 c 0,33,34
EndSplineSet
Validated: 524289
EndChar

StartChar: E
Encoding: 69 69 33
Width: 1106
Flags: W
HStem: 0 21G<451.5 510.5 824 853.5> 0 21G<451.5 510.5 824 853.5> 285.977 714.023<119.97 271.213> 857 143<645.689 745.342 931.658 1031.34>
VStem: 53 286<351.97 933.03> 481 143<306.658 835.342> 767 143<21.6582 835.342>
LayerCount: 2
Fore
SplineSet
481 0 m 128,-1,1
 422 0 422 0 380 42 c 128,-1,2
 338 84 338 84 339 143 c 2,3,-1
 339 214 l 2,4,5
 339 244 339 244 359 265 c 0,6,7
 380 286 380 286 410 286 c 0,8,9
 439 286 439 286 460 306 c 0,10,11
 481 327 481 327 481 357 c 2,12,-1
 481 857 l 2,13,14
 481 916 481 916 523 958 c 128,-1,15
 565 1000 565 1000 624 1000 c 2,16,-1
 981 1000 l 2,17,18
 1011 1000 1011 1000 1032 979 c 128,-1,19
 1053 958 1053 958 1053 928 c 0,20,21
 1053 899 1053 899 1032 878 c 128,-1,22
 1011 857 1011 857 981 857 c 0,23,24
 952 857 952 857 931 836 c 128,-1,25
 910 815 910 815 910 786 c 2,26,-1
 910 71 l 2,27,28
 910 41 910 41 889 21 c 0,29,30
 868 0 868 0 839 0 c 0,31,32
 809 0 809 0 788 21 c 128,-1,33
 767 42 767 42 767 71 c 2,34,-1
 767 786 l 2,35,36
 767 815 767 815 746 836 c 128,-1,37
 725 857 725 857 696 857 c 128,-1,38
 667 857 667 857 645 836 c 0,39,40
 624 815 624 815 624 786 c 2,41,-1
 624 143 l 2,42,43
 624 84 624 84 582 42 c 128,-1,0
 540 0 540 0 481 0 c 128,-1,1
196 286 m 0,44,45
 137 286 137 286 95 327 c 0,46,47
 53 369 53 369 53 428 c 2,48,-1
 53 857 l 2,49,50
 53 916 53 916 95 958 c 128,-1,51
 137 1000 137 1000 196 1000 c 128,-1,52
 255 1000 255 1000 297 958 c 128,-1,53
 339 916 339 916 339 857 c 2,54,-1
 339 428 l 2,55,56
 339 369 339 369 297 327 c 0,57,58
 255.976744186 285.976744186 255.976744186 285.976744186 198.734991888 285.976744186 c 0,59,60
 197.372093023 285.976744186 197.372093023 285.976744186 196 286 c 0,44,45
EndSplineSet
Validated: 524321
EndChar

StartChar: F
Encoding: 70 70 34
Width: 963
Flags: W
HStem: 0 143<359.658 459.342> 143 143<645.628 888.342> 428 143<645.689 888.342> 980 20G<538 567.5> 980 20G<538 567.5>
VStem: 53 286<164.658 504.435> 481 143<306.658 406.342 592.689 978.342>
LayerCount: 2
Fore
SplineSet
624 143 m 2,0,1
 564 143 564 143 523 185 c 0,2,3
 481 227 481 227 481 286 c 2,4,-1
 481 928 l 2,5,6
 481 958 481 958 502 979 c 128,-1,7
 523 1000 523 1000 553 1000 c 0,8,9
 582 1000 582 1000 603 979 c 128,-1,10
 624 958 624 958 624 928 c 2,11,-1
 624 643 l 2,12,13
 624 614 624 614 645 592 c 0,14,15
 666 571 666 571 696 571 c 2,16,-1
 839 571 l 2,17,18
 868 571 868 571 889 550 c 128,-1,19
 910 529 910 529 910 500 c 0,20,21
 910 470 910 470 889 449 c 128,-1,22
 868 428 868 428 839 428 c 2,23,-1
 696 428 l 2,24,25
 667 428 667 428 645 407 c 0,26,27
 624 386 624 386 624 357 c 0,28,29
 624 327 624 327 645 306 c 0,30,31
 665.045454545 285.954545455 665.045454545 285.954545455 693.291322314 285.954545455 c 0,32,33
 694.636363636 285.954545455 694.636363636 285.954545455 696 286 c 2,34,-1
 839 286 l 2,35,36
 868 286 868 286 889 265 c 128,-1,37
 910 244 910 244 910 214 c 0,38,39
 910 185 910 185 889 164 c 128,-1,40
 868 143 868 143 839 143 c 2,41,-1
 624 143 l 2,0,1
196 0 m 2,42,43
 137 0 137 0 95 42 c 128,-1,44
 53 84 53 84 53 143 c 2,45,-1
 53 428 l 2,46,47
 53 488 53 488 95 529 c 0,48,49
 137 571 137 571 196 571 c 2,50,-1
 267 571 l 2,51,52
 297 571 297 571 318 550 c 128,-1,53
 339 529 339 529 339 500 c 2,54,-1
 339 214 l 2,55,56
 339 185 339 185 359 164 c 0,57,58
 380 143 380 143 410 143 c 0,59,60
 439 143 439 143 460 122 c 128,-1,61
 481 101 481 101 481 71 c 128,-1,62
 481 41 481 41 460 21 c 0,63,64
 439 0 439 0 410 0 c 2,65,-1
 196 0 l 2,42,43
EndSplineSet
Validated: 524289
EndChar

StartChar: G
Encoding: 71 71 35
Width: 963
Flags: W
HStem: 0 143<359.658 602.342> 714 286<502.658 602.342> 857 143<645.689 745.342>
VStem: 53 286<164.658 933.03> 481 143<735.658 835.342> 767 143<448.349 835.342>
LayerCount: 2
Fore
SplineSet
767 143 m 128,-1,1
 708 143 708 143 666 185 c 128,-1,2
 624 227 624 227 624 285 c 2,3,-1
 624 357 l 2,4,5
 624 386 624 386 645 407 c 128,-1,6
 666 428 666 428 696 428 c 128,-1,7
 726 428 726 428 746 449 c 0,8,9
 767 470 767 470 767 500 c 2,10,-1
 767 786 l 2,11,12
 767 815 767 815 746 836 c 128,-1,13
 725 857 725 857 696 857 c 128,-1,14
 667 857 667 857 645 836 c 0,15,16
 624 815 624 815 624 786 c 0,17,18
 624 756 624 756 603 735 c 128,-1,19
 582 714 582 714 553 714 c 0,20,21
 523 714 523 714 502 735 c 128,-1,22
 481 756 481 756 481 786 c 2,23,-1
 481 928 l 2,24,25
 481 957 481 957 502 979 c 0,26,27
 523 1000 523 1000 553 1000 c 2,28,-1
 839 1000 l 2,29,30
 868 1000 868 1000 889 979 c 128,-1,31
 910 958 910 958 910 928 c 2,32,-1
 910 286 l 2,33,34
 910 226 910 226 868 185 c 0,35,0
 826 143 826 143 767 143 c 128,-1,1
124 0 m 2,36,37
 94 0 94 0 74 21 c 0,38,39
 53 42 53 42 53 71 c 2,40,-1
 53 857 l 2,41,42
 53 916 53 916 95 958 c 128,-1,43
 137 1000 137 1000 196 1000 c 128,-1,44
 255 1000 255 1000 297 958 c 128,-1,45
 339 916 339 916 339 857 c 2,46,-1
 339 214 l 2,47,48
 339 185 339 185 359 164 c 0,49,50
 380 143 380 143 410 143 c 2,51,-1
 553 143 l 2,52,53
 582 143 582 143 603 122 c 128,-1,54
 624 101 624 101 624 71 c 128,-1,55
 624 41 624 41 603 21 c 0,56,57
 582 0 582 0 553 0 c 2,58,-1
 124 0 l 2,36,37
EndSplineSet
Validated: 1
EndChar

StartChar: H
Encoding: 72 72 36
Width: 1106
Flags: W
HStem: 0 286<120.289 317.342> 0 143<359.658 1031.34> 428 143<359.658 888.342> 714 286<119.97 317.342> 857 143<359.658 1031.34>
LayerCount: 2
Fore
SplineSet
196 714 m 2,0,1
 137 714 137 714 95 756 c 128,-1,2
 53 798 53 798 53 857 c 2,3,-1
 53 928 l 2,4,5
 53 957 53 957 74 979 c 0,6,7
 95 1000 95 1000 124 1000 c 2,8,-1
 981 1000 l 2,9,10
 1011 1000 1011 1000 1032 979 c 128,-1,11
 1053 958 1053 958 1053 928 c 0,12,13
 1053 899 1053 899 1032 878 c 128,-1,14
 1011 857 1011 857 981 857 c 2,15,-1
 410 857 l 2,16,17
 380 857 380 857 359 836 c 0,18,19
 338.954545455 815.954545455 338.954545455 815.954545455 338.954545455 788.619834711 c 0,20,21
 338.954545455 755.954545455 338.954545455 755.954545455 318 735 c 128,-1,22
 297 714 297 714 267 714 c 2,23,-1
 196 714 l 2,0,1
410 428 m 2,24,25
 380 428 380 428 359 449 c 0,26,27
 338.954545455 469.045454545 338.954545455 469.045454545 338.954545455 497.291322314 c 0,28,29
 338.954545455 528.952272727 338.954545455 528.952272727 359 550 c 0,30,31
 380 571 380 571 410 571 c 2,32,-1
 839 571 l 2,33,34
 868 571 868 571 889 550 c 128,-1,35
 910 529 910 529 910 500 c 0,36,37
 910 470 910 470 889 449 c 128,-1,38
 868 428 868 428 839 428 c 2,39,-1
 410 428 l 2,24,25
124 0 m 2,40,41
 94 0 94 0 74 21 c 0,42,43
 53 42 53 42 53 71 c 2,44,-1
 53 143 l 2,45,46
 53 202 53 202 95 244 c 128,-1,47
 137 286 137 286 196 286 c 2,48,-1
 267 286 l 2,49,50
 297 286 297 286 318 265 c 128,-1,51
 339 244 339 244 339 214 c 0,52,53
 339 185 339 185 359 164 c 0,54,55
 380 143 380 143 410 143 c 2,56,-1
 981 143 l 2,57,58
 1011 143 1011 143 1032 122 c 128,-1,59
 1053 101 1053 101 1053 71 c 128,-1,60
 1053 41 1053 41 1032 21 c 0,61,62
 1011 0 1011 0 981 0 c 2,63,-1
 124 0 l 2,40,41
EndSplineSet
Validated: 524289
EndChar

StartChar: I
Encoding: 73 73 37
Width: 392
Flags: W
HStem: 0 21G<252.5 282> 0 21G<252.5 282> 980 20G<166.5 282> 980 20G<166.5 282>
VStem: 53 286<734.349 932.633> 196 143<21.6582 693.651>
LayerCount: 2
Fore
SplineSet
267 0 m 0,0,1
 238 0 238 0 217 21 c 128,-1,2
 196 42 196 42 196 71 c 2,3,-1
 196 643 l 2,4,5
 196 673 196 673 175 693 c 0,6,7
 154 714 154 714 124 714 c 128,-1,8
 94 714 94 714 74 735 c 0,9,10
 53 756 53 756 53 786 c 2,11,-1
 53 857 l 2,12,13
 53 916 53 916 95 958 c 128,-1,14
 137 1000 137 1000 196 1000 c 2,15,-1
 267 1000 l 2,16,17
 297 1000 297 1000 318 979 c 128,-1,18
 339 958 339 958 339 928 c 2,19,-1
 339 71 l 2,20,21
 339 41 339 41 318 21 c 0,22,23
 297 0 297 0 267 0 c 0,0,1
EndSplineSet
Validated: 1
EndChar

StartChar: J
Encoding: 74 74 38
Width: 963
Flags: W
HStem: 0 143<74.6582 746.651> 571 143<73.3489 602.342> 980 20G<737.5 853.5> 980 20G<737.5 853.5>
VStem: 624 286<735.658 932.633> 767 143<164.658 549.342>
LayerCount: 2
Fore
SplineSet
124 0 m 2,0,1
 94 0 94 0 74 21 c 0,2,3
 53 42 53 42 53 71 c 128,-1,4
 53 100 53 100 74 122 c 0,5,6
 95 143 95 143 124 143 c 2,7,-1
 696 143 l 2,8,9
 726 143 726 143 746 164 c 0,10,11
 767 185 767 185 767 214 c 2,12,-1
 767 500 l 2,13,14
 767 529 767 529 746 550 c 128,-1,15
 725 571 725 571 696 571 c 2,16,-1
 124 571 l 2,17,18
 94 571 94 571 74 592 c 0,19,20
 53 613 53 613 53 643 c 128,-1,21
 53 673 53 673 74 693 c 0,22,23
 95 714 95 714 124 714 c 2,24,-1
 553 714 l 2,25,26
 582 714 582 714 603 735 c 128,-1,27
 624 756 624 756 624 786 c 2,28,-1
 624 857 l 2,29,30
 624 916 624 916 666 958 c 128,-1,31
 708 1000 708 1000 767 1000 c 2,32,-1
 839 1000 l 2,33,34
 868 1000 868 1000 889 979 c 128,-1,35
 910 958 910 958 910 928 c 2,36,-1
 910 214 l 2,37,38
 910 185 910 185 889 164 c 128,-1,39
 868 143 868 143 839 143 c 0,40,41
 809 143 809 143 788 122 c 128,-1,42
 767 101 767 101 767 71 c 128,-1,43
 767 41 767 41 746 21 c 0,44,45
 725 0 725 0 696 0 c 2,46,-1
 124 0 l 2,0,1
EndSplineSet
Validated: 1
EndChar

StartChar: K
Encoding: 75 75 39
Width: 963
Flags: W
HStem: 0 143<74.6582 746.651> 714 286<119.97 317.342> 857 143<359.658 745.342>
VStem: 767 143<163.349 835.342>
LayerCount: 2
Fore
SplineSet
124 0 m 2,0,1
 94 0 94 0 74 21 c 0,2,3
 53 42 53 42 53 71 c 128,-1,4
 53 100 53 100 74 122 c 0,5,6
 95 143 95 143 124 143 c 2,7,-1
 696 143 l 2,8,9
 726 143 726 143 746 164 c 0,10,11
 767 185 767 185 767 214 c 2,12,-1
 767 786 l 2,13,14
 767 815 767 815 746 836 c 128,-1,15
 725 857 725 857 696 857 c 2,16,-1
 410 857 l 2,17,18
 380 857 380 857 359 836 c 0,19,20
 338.954545455 815.954545455 338.954545455 815.954545455 338.954545455 788.619834711 c 0,21,22
 338.954545455 755.954545455 338.954545455 755.954545455 318 735 c 128,-1,23
 297 714 297 714 267 714 c 2,24,-1
 196 714 l 2,25,26
 137 714 137 714 95 756 c 128,-1,27
 53 798 53 798 53 857 c 2,28,-1
 53 928 l 2,29,30
 53 957 53 957 74 979 c 0,31,32
 95 1000 95 1000 124 1000 c 2,33,-1
 839 1000 l 2,34,35
 868 1000 868 1000 889 979 c 128,-1,36
 910 958 910 958 910 928 c 2,37,-1
 910 71 l 2,38,39
 910 41 910 41 889 21 c 0,40,41
 868 0 868 0 839 0 c 2,42,-1
 124 0 l 2,0,1
EndSplineSet
Validated: 524289
EndChar

StartChar: L
Encoding: 76 76 40
Width: 678
Flags: W
HStem: 0 143<360.158 459.842> 980 20G<538.5 568> 980 20G<538.5 568>
VStem: 481.5 143<164.658 978.342>
LayerCount: 2
Fore
SplineSet
410.5 0 m 2,0,1
 380.5 0 380.5 0 359.5 21 c 0,2,3
 339.454545455 41.0454545455 339.454545455 41.0454545455 339.454545455 68.3801652893 c 0,4,5
 339.454545455 100.047619048 339.454545455 100.047619048 318.5 122 c 0,6,7
 297.5 143 297.5 143 267.5 143 c 2,8,-1
 196.5 143 l 2,9,10
 137.5 143 137.5 143 95.5 185 c 128,-1,11
 53.5 227 53.5 227 53.5 285 c 2,12,-1
 53.5 357 l 2,13,14
 53.5 386 53.5 386 74.5 407 c 128,-1,15
 95.5 428 95.5 428 124.5 428 c 2,16,-1
 196.5 428 l 2,17,18
 255.5 428 255.5 428 297.5 386 c 128,-1,19
 339.5 344 339.5 344 339.5 286 c 2,20,-1
 339.5 214 l 2,21,22
 339.5 185 339.5 185 359.5 164 c 0,23,24
 380.5 143 380.5 143 410.5 143 c 0,25,26
 439.5 143 439.5 143 460.5 164 c 128,-1,27
 481.5 185 481.5 185 481.5 214 c 2,28,-1
 481.5 928 l 2,29,30
 481.5 958 481.5 958 502.5 979 c 128,-1,31
 523.5 1000 523.5 1000 553.5 1000 c 0,32,33
 582.5 1000 582.5 1000 603.5 979 c 128,-1,34
 624.5 958 624.5 958 624.5 928 c 2,35,-1
 624.5 71 l 2,36,37
 624.5 41 624.5 41 603.5 21 c 0,38,39
 582.5 0 582.5 0 553.5 0 c 2,40,-1
 410.5 0 l 2,0,1
EndSplineSet
Validated: 524289
EndChar

StartChar: M
Encoding: 77 77 41
Width: 963
Flags: W
HStem: 0 143<359.658 746.651> 714 286<788.658 888.342> 857 143<359.658 745.342>
VStem: 196 143<449.658 835.342> 767 143<735.658 835.342>
LayerCount: 2
Fore
SplineSet
124 0 m 2,0,1
 94 0 94 0 74 21 c 0,2,3
 53 42 53 42 53 71 c 2,4,-1
 53 357 l 2,5,6
 53 386 53 386 74 407 c 128,-1,7
 95 428 95 428 124 428 c 128,-1,8
 153 428 153 428 175 449 c 0,9,10
 196 470 196 470 196 500 c 2,11,-1
 196 785 l 2,12,13
 196 815 196 815 217 836 c 128,-1,14
 238 857 238 857 267 857 c 0,15,16
 297 857 297 857 318 878 c 128,-1,17
 339 899 339 899 339 928 c 128,-1,18
 339 957 339 957 359 979 c 0,19,20
 380 1000 380 1000 410 1000 c 2,21,-1
 839 1000 l 2,22,23
 868 1000 868 1000 889 979 c 128,-1,24
 910 958 910 958 910 928 c 2,25,-1
 910 786 l 2,26,27
 910 756 910 756 889 735 c 128,-1,28
 868 714 868 714 839 714 c 0,29,30
 809 714 809 714 788 735 c 128,-1,31
 767 756 767 756 767 786 c 0,32,33
 767 815 767 815 746 836 c 128,-1,34
 725 857 725 857 696 857 c 2,35,-1
 481 857 l 1,36,-1
 405 857 l 2,37,38
 379 855 379 855 359 836 c 0,39,40
 338 815 338 815 339 786 c 2,41,-1
 339 214 l 2,42,43
 339 185 339 185 359 164 c 0,44,45
 380 143 380 143 410 143 c 2,46,-1
 696 143 l 2,47,48
 726 143 726 143 746 122 c 0,49,50
 767 101 767 101 767 71 c 128,-1,51
 767 41 767 41 746 21 c 0,52,53
 725 0 725 0 696 0 c 2,54,-1
 124 0 l 2,0,1
EndSplineSet
Validated: 33
EndChar

StartChar: N
Encoding: 78 78 42
Width: 963
Flags: W
HStem: 0 143<217.658 459.342> 714 286<217.658 317.342 690.797 786.826>
VStem: 53 286<735.658 932.633> 53 143<164.658 692.342> 481 143<164.658 692.342> 624 286<735.658 933.03> 767 143<21.6582 693.651>
LayerCount: 2
Fore
SplineSet
196 0 m 2,0,1
 137 0 137 0 95 42 c 128,-1,2
 53 84 53 84 53 143 c 2,3,-1
 53 857 l 2,4,5
 53 916 53 916 95 958 c 128,-1,6
 137 1000 137 1000 196 1000 c 2,7,-1
 267 1000 l 2,8,9
 297 1000 297 1000 318 979 c 128,-1,10
 339 958 339 958 339 928 c 2,11,-1
 339 786 l 2,12,13
 339 756 339 756 318 735 c 128,-1,14
 297 714 297 714 267 714 c 0,15,16
 238 714 238 714 217 693 c 128,-1,17
 196 672 196 672 196 643 c 2,18,-1
 196 214 l 2,19,20
 196 185 196 185 217 164 c 128,-1,21
 238 143 238 143 267 143 c 2,22,-1
 410 143 l 2,23,24
 439 143 439 143 460 164 c 128,-1,25
 481 185 481 185 481 214 c 2,26,-1
 481 643 l 2,27,28
 481 672 481 672 502 693 c 128,-1,29
 523 714 523 714 553 714 c 0,30,31
 582 714 582 714 603 735 c 128,-1,32
 624 756 624 756 624 786 c 2,33,-1
 624 857 l 2,34,35
 624 916 624 916 666 958 c 128,-1,36
 708 1000 708 1000 767 1000 c 0,37,38
 827 1000 827 1000 868 958 c 0,39,40
 910 916 910 916 910 857 c 2,41,-1
 910 71 l 2,42,43
 910 41 910 41 889 21 c 0,44,45
 868 0 868 0 839 0 c 0,46,47
 809 0 809 0 788 21 c 128,-1,48
 767 42 767 42 767 71 c 2,49,-1
 767 643 l 2,50,51
 767 673 767 673 746 693 c 0,52,53
 725 714 725 714 696 714 c 128,-1,54
 667 714 667 714 645 693 c 0,55,56
 624 672 624 672 624 643 c 2,57,-1
 624 71 l 2,58,59
 624 41 624 41 603 21 c 0,60,61
 582 0 582 0 553 0 c 2,62,-1
 196 0 l 2,0,1
EndSplineSet
Validated: 1
EndChar

StartChar: O
Encoding: 79 79 43
Width: 963
Flags: W
HStem: 0 143<359.658 602.342 788.658 888.342> 857 143<359.658 602.342>
VStem: 53 286<164.658 550.651> 196 143<592.658 835.342> 624 143<164.658 835.342>
LayerCount: 2
Fore
SplineSet
124 0 m 2,0,1
 94 0 94 0 74 21 c 0,2,3
 53 42 53 42 53 71 c 2,4,-1
 53 500 l 2,5,6
 53 530 53 530 74 550 c 0,7,8
 95 571 95 571 124 571 c 128,-1,9
 153 571 153 571 175 592 c 0,10,11
 196 613 196 613 196 643 c 2,12,-1
 196 857 l 2,13,14
 196 916 196 916 238 958 c 128,-1,15
 280 1000 280 1000 339 1000 c 2,16,-1
 624 1000 l 2,17,18
 683 1000 683 1000 725 958 c 128,-1,19
 767 916 767 916 767 857 c 2,20,-1
 767 214 l 2,21,22
 767 185 767 185 788 164 c 128,-1,23
 809 143 809 143 839 143 c 0,24,25
 868 143 868 143 889 122 c 128,-1,26
 910 101 910 101 910 71 c 128,-1,27
 910 41 910 41 889 21 c 0,28,29
 868 0 868 0 839 0 c 2,30,-1
 124 0 l 2,0,1
553 143 m 2,31,32
 582 143 582 143 603 164 c 128,-1,33
 624 185 624 185 624 214 c 2,34,-1
 624 786 l 2,35,36
 624 815 624 815 603 836 c 128,-1,37
 582 857 582 857 553 857 c 2,38,-1
 410 857 l 2,39,40
 380 857 380 857 359 836 c 128,-1,41
 338 815 338 815 339 786 c 2,42,-1
 339 214 l 2,43,44
 339 185 339 185 359 164 c 0,45,46
 380 143 380 143 410 143 c 2,47,-1
 553 143 l 2,31,32
EndSplineSet
Validated: 33
EndChar

StartChar: P
Encoding: 80 80 44
Width: 821
Flags: W
HStem: 0 143<360.158 602.842> 714 286<360.158 459.842> 857 143<218.158 317.842>
VStem: 53.5 286<164.658 549.342> 53.5 143<592.689 835.342> 339.455 142.045<735.658 835.343> 624.5 143<164.658 978.342>
LayerCount: 2
Fore
SplineSet
196.5 0 m 2,0,1
 137.5 0 137.5 0 95.5 42 c 128,-1,2
 53.5 84 53.5 84 53.5 143 c 2,3,-1
 53.5 857 l 2,4,5
 53.5 916 53.5 916 95.5 958 c 128,-1,6
 137.5 1000 137.5 1000 196.5 1000 c 2,7,-1
 410.5 1000 l 2,8,9
 439.5 1000 439.5 1000 460.5 979 c 128,-1,10
 481.5 958 481.5 958 481.5 928 c 2,11,-1
 481.5 786 l 2,12,13
 481.5 756 481.5 756 460.5 735 c 128,-1,14
 439.5 714 439.5 714 410.5 714 c 0,15,16
 380.5 714 380.5 714 359.5 735 c 0,17,18
 339.454545455 755.045454545 339.454545455 755.045454545 339.454545455 783.291322314 c 0,19,20
 339.454545455 815.045454545 339.454545455 815.045454545 318.5 836 c 128,-1,21
 297.5 857 297.5 857 267.5 857 c 0,22,23
 238.5 857 238.5 857 217.5 836 c 128,-1,24
 196.5 815 196.5 815 196.5 786 c 2,25,-1
 196.5 643 l 2,26,27
 196.5 614 196.5 614 217.5 592 c 0,28,29
 238.5 571 238.5 571 267.5 571 c 0,30,31
 297.5 571 297.5 571 318.5 550 c 128,-1,32
 339.5 529 339.5 529 339.5 500 c 2,33,-1
 339.5 214 l 2,34,35
 339.5 185 339.5 185 359.5 164 c 0,36,37
 380.5 143 380.5 143 410.5 143 c 2,38,-1
 553.5 143 l 2,39,40
 582.5 143 582.5 143 603.5 164 c 128,-1,41
 624.5 185 624.5 185 624.5 214 c 2,42,-1
 624.5 928 l 2,43,44
 624.5 958 624.5 958 645.5 979 c 128,-1,45
 666.5 1000 666.5 1000 696.5 1000 c 128,-1,46
 726.5 1000 726.5 1000 746.5 979 c 0,47,48
 767.5 958 767.5 958 767.5 928 c 2,49,-1
 767.5 71 l 2,50,51
 767.5 41 767.5 41 746.5 21 c 0,52,53
 725.5 0 725.5 0 696.5 0 c 2,54,-1
 196.5 0 l 2,0,1
EndSplineSet
Validated: 524289
EndChar

StartChar: Q
Encoding: 81 81 45
Width: 963
Flags: W
HStem: 0 143<359.658 746.651> 714 286<788.658 888.342> 857 143<359.658 745.342>
VStem: 53 286<209.97 835.342> 338.955 428.045<21.6282 121.309> 767 143<735.658 835.342>
LayerCount: 2
Fore
SplineSet
196 143 m 128,-1,1
 137 143 137 143 95 185 c 128,-1,2
 53 227 53 227 53 286 c 2,3,-1
 53 928 l 2,4,5
 53 957 53 957 74 979 c 0,6,7
 95 1000 95 1000 124 1000 c 2,8,-1
 839 1000 l 2,9,10
 868 1000 868 1000 889 979 c 128,-1,11
 910 958 910 958 910 928 c 2,12,-1
 910 786 l 2,13,14
 910 756 910 756 889 735 c 128,-1,15
 868 714 868 714 839 714 c 0,16,17
 809 714 809 714 788 735 c 128,-1,18
 767 756 767 756 767 786 c 0,19,20
 767 815 767 815 746 836 c 128,-1,21
 725 857 725 857 696 857 c 2,22,-1
 410 857 l 2,23,24
 380 857 380 857 359 836 c 128,-1,25
 338 815 338 815 339 786 c 2,26,-1
 339 286 l 2,27,28
 339 226 339 226 297 185 c 0,29,0
 255 143 255 143 196 143 c 128,-1,1
410 0 m 2,30,31
 380 0 380 0 359 21 c 0,32,33
 338.954545455 41.0454545455 338.954545455 41.0454545455 338.954545455 68.3801652893 c 0,34,35
 338.954545455 99.95 338.954545455 99.95 359 122 c 0,36,37
 380 143 380 143 410 143 c 2,38,-1
 696 143 l 2,39,40
 726 143 726 143 746 122 c 0,41,42
 767 101 767 101 767 71 c 128,-1,43
 767 41 767 41 746 21 c 0,44,45
 725 0 725 0 696 0 c 2,46,-1
 410 0 l 2,30,31
EndSplineSet
Validated: 524321
EndChar

StartChar: R
Encoding: 82 82 46
Width: 963
Flags: W
HStem: 0 21G<594 653.5> 0 21G<594 653.5> 714 286<119.97 317.342> 857 143<359.658 745.342>
VStem: 481 286<66.9697 264.342> 624 143<306.658 549.342> 767 143<592.689 835.342>
LayerCount: 2
Fore
SplineSet
839 571 m 0,0,1
 809 571 809 571 788 592 c 128,-1,2
 767 613 767 613 767 643 c 2,3,-1
 767 786 l 2,4,5
 767 815 767 815 746 836 c 128,-1,6
 725 857 725 857 696 857 c 2,7,-1
 410 857 l 2,8,9
 380 857 380 857 359 836 c 0,10,11
 338.954545455 815.954545455 338.954545455 815.954545455 338.954545455 788.619834711 c 0,12,13
 338.954545455 755.954545455 338.954545455 755.954545455 318 735 c 128,-1,14
 297 714 297 714 267 714 c 2,15,-1
 196 714 l 2,16,17
 137 714 137 714 95 756 c 128,-1,18
 53 798 53 798 53 857 c 2,19,-1
 53 928 l 2,20,21
 53 957 53 957 74 979 c 0,22,23
 95 1000 95 1000 124 1000 c 2,24,-1
 839 1000 l 2,25,26
 868 1000 868 1000 889 979 c 128,-1,27
 910 958 910 958 910 928 c 2,28,-1
 910 643 l 2,29,30
 910 614 910 614 889 592 c 0,31,32
 868 571 868 571 839 571 c 0,0,1
624 0 m 0,33,34
 564 0 564 0 523 42 c 0,35,36
 481 84 481 84 481 143 c 2,37,-1
 481 214 l 2,38,39
 481 244 481 244 502 265 c 128,-1,40
 523 286 523 286 553 286 c 0,41,42
 582 286 582 286 603 306 c 0,43,44
 624 327 624 327 624 357 c 2,45,-1
 624 500 l 2,46,47
 624 529 624 529 645 550 c 128,-1,48
 666 571 666 571 696 571 c 128,-1,49
 726 571 726 571 746 550 c 0,50,51
 767 529 767 529 767 500 c 2,52,-1
 767 143 l 2,53,54
 767 84 767 84 725 42 c 128,-1,55
 683 0 683 0 624 0 c 0,33,34
EndSplineSet
Validated: 524289
EndChar

StartChar: S
Encoding: 83 83 47
Width: 963
Flags: W
HStem: 0 143<217.658 602.342> 286 142<359.658 767> 428 572<119.97 271.633>
VStem: 53 286<495.367 933.03> 196 428<21.6582 121.311> 624 286<735.658 932.633> 767 143<21.6582 286 428 693.651>
LayerCount: 2
Fore
SplineSet
839 0 m 0,0,1
 809 0 809 0 788 21 c 128,-1,2
 767 42 767 42 767 71 c 2,3,-1
 767 286 l 1,4,-1
 410 286 l 2,5,6
 380 286 380 286 359 306 c 0,7,8
 338.954545455 326.045454545 338.954545455 326.045454545 338.954545455 354.291322314 c 0,9,10
 338.954545455 386.045454545 338.954545455 386.045454545 318 407 c 128,-1,11
 297 428 297 428 267 428 c 2,12,-1
 196 428 l 2,13,14
 137 428 137 428 95 470 c 128,-1,15
 53 512 53 512 53 571 c 2,16,-1
 53 857 l 2,17,18
 53 916 53 916 95 958 c 128,-1,19
 137 1000 137 1000 196 1000 c 128,-1,20
 255 1000 255 1000 297 958 c 128,-1,21
 339 916 339 916 339 857 c 2,22,-1
 339 500 l 2,23,24
 339 470 339 470 359 449 c 0,25,26
 380 428 380 428 410 428 c 2,27,-1
 767 428 l 1,28,-1
 767 643 l 2,29,30
 767 673 767 673 746 693 c 0,31,32
 725 714 725 714 696 714 c 128,-1,33
 667 714 667 714 645 735 c 0,34,35
 624 756 624 756 624 786 c 2,36,-1
 624 857 l 2,37,38
 624 916 624 916 666 958 c 128,-1,39
 708 1000 708 1000 767 1000 c 2,40,-1
 839 1000 l 2,41,42
 868 1000 868 1000 889 979 c 128,-1,43
 910 958 910 958 910 928 c 2,44,-1
 910 71 l 2,45,46
 910 41 910 41 889 21 c 0,47,48
 868 0 868 0 839 0 c 0,0,1
267 0 m 2,49,50
 238 0 238 0 217 21 c 128,-1,51
 196 42 196 42 196 71 c 128,-1,52
 196 100 196 100 217 122 c 0,53,54
 238 143 238 143 267 143 c 2,55,-1
 553 143 l 2,56,57
 582 143 582 143 603 122 c 128,-1,58
 624 101 624 101 624 71 c 128,-1,59
 624 41 624 41 603 21 c 0,60,61
 582 0 582 0 553 0 c 2,62,-1
 267 0 l 2,49,50
EndSplineSet
Validated: 524289
EndChar

StartChar: T
Encoding: 84 84 48
Width: 963
Flags: W
HStem: 0 143<359.658 459.342 645.658 746.651> 143 285<119.97 271.633 788.658 888.342> 980 20G<538 567.5> 980 20G<538 567.5>
VStem: 481 143<164.658 978.342> 767 143<164.658 406.342>
LayerCount: 2
Fore
SplineSet
410 0 m 2,0,1
 380 0 380 0 359 21 c 0,2,3
 338.954545455 41.0454545455 338.954545455 41.0454545455 338.954545455 68.3801652893 c 0,4,5
 338.954545455 100.047619048 338.954545455 100.047619048 318 122 c 0,6,7
 297 143 297 143 267 143 c 2,8,-1
 196 143 l 2,9,10
 137 143 137 143 95 185 c 128,-1,11
 53 227 53 227 53 285 c 2,12,-1
 53 357 l 2,13,14
 53 386 53 386 74 407 c 128,-1,15
 95 428 95 428 124 428 c 2,16,-1
 196 428 l 2,17,18
 255 428 255 428 297 386 c 128,-1,19
 339 344 339 344 339 286 c 2,20,-1
 339 214 l 2,21,22
 339 185 339 185 359 164 c 0,23,24
 380 143 380 143 410 143 c 0,25,26
 439 143 439 143 460 164 c 128,-1,27
 481 185 481 185 481 214 c 2,28,-1
 481 928 l 2,29,30
 481 958 481 958 502 979 c 128,-1,31
 523 1000 523 1000 553 1000 c 0,32,33
 582 1000 582 1000 603 979 c 128,-1,34
 624 958 624 958 624 928 c 2,35,-1
 624 214 l 2,36,37
 624 185 624 185 645 164 c 128,-1,38
 666 143 666 143 696 143 c 128,-1,39
 726 143 726 143 746 164 c 0,40,41
 767 185 767 185 767 214 c 2,42,-1
 767 357 l 2,43,44
 767 386 767 386 788 407 c 128,-1,45
 809 428 809 428 839 428 c 0,46,47
 868 428 868 428 889 407 c 128,-1,48
 910 386 910 386 910 357 c 2,49,-1
 910 214 l 2,50,51
 910 185 910 185 889 164 c 128,-1,52
 868 143 868 143 839 143 c 0,53,54
 809 143 809 143 788 122 c 128,-1,55
 767 101 767 101 767 71 c 128,-1,56
 767 41 767 41 746 21 c 0,57,58
 725 0 725 0 696 0 c 2,59,-1
 410 0 l 2,0,1
EndSplineSet
Validated: 524289
EndChar

StartChar: U
Encoding: 85 85 49
Width: 963
Flags: W
HStem: 0 143<359.658 746.651> 143 857<119.97 272.03> 571 286<502.658 602.342> 857 143<645.658 745.374>
VStem: 53 286<209.97 933.03> 481 143<592.689 835.342> 767 143<163.349 835.342>
LayerCount: 2
Fore
SplineSet
410 0 m 2,0,1
 380 0 380 0 359 21 c 0,2,3
 338.954545455 41.0454545455 338.954545455 41.0454545455 338.954545455 68.3801652893 c 0,4,5
 338.954545455 99.95 338.954545455 99.95 359 122 c 0,6,7
 380 143 380 143 410 143 c 2,8,-1
 696 143 l 2,9,10
 726 143 726 143 746 164 c 0,11,12
 767 185 767 185 767 214 c 2,13,-1
 767 786 l 2,14,15
 767 815 767 815 746 836 c 0,16,17
 726 855 726 855 700 857 c 2,18,-1
 691 857 l 2,19,20
 665 855 665 855 645 836 c 0,21,22
 624 815 624 815 624 786 c 2,23,-1
 624 643 l 2,24,25
 624 614 624 614 603 592 c 0,26,27
 582 571 582 571 553 571 c 0,28,29
 523 571 523 571 502 592 c 128,-1,30
 481 613 481 613 481 643 c 2,31,-1
 481 785 l 2,32,33
 481 815 481 815 502 836 c 128,-1,34
 523 857 523 857 553 857 c 0,35,36
 582 857 582 857 603 878 c 128,-1,37
 624 899 624 899 624 928 c 128,-1,38
 624 957 624 957 645 979 c 0,39,40
 666 1000 666 1000 696 1000 c 2,41,-1
 839 1000 l 2,42,43
 868 1000 868 1000 889 979 c 128,-1,44
 910 958 910 958 910 928 c 2,45,-1
 910 71 l 2,46,47
 910 41 910 41 889 21 c 0,48,49
 868 0 868 0 839 0 c 2,50,-1
 410 0 l 2,0,1
196 143 m 128,-1,52
 137 143 137 143 95 185 c 128,-1,53
 53 227 53 227 53 286 c 2,54,-1
 53 857 l 2,55,56
 53 916 53 916 95 958 c 128,-1,57
 137 1000 137 1000 196 1000 c 128,-1,58
 255 1000 255 1000 297 958 c 128,-1,59
 339 916 339 916 339 857 c 2,60,-1
 339 286 l 2,61,62
 339 226 339 226 297 185 c 0,63,51
 255 143 255 143 196 143 c 128,-1,52
EndSplineSet
Validated: 524289
EndChar

StartChar: V
Encoding: 86 86 50
Width: 821
Flags: W
HStem: 0 428<360.158 459.842> 980 20G<110 226 681.5 711.5> 980 20G<110 226 681.5 711.5>
VStem: 53.5 286<495.367 933.03> 339.5 142<21.6582 406.342> 481.5 286<494.97 692.342> 624.5 143<735.658 978.342>
LayerCount: 2
Fore
SplineSet
624.5 428 m 0,0,1
 564.5 428 564.5 428 523.5 470 c 0,2,3
 481.5 512 481.5 512 481.5 571 c 2,4,-1
 481.5 643 l 2,5,6
 481.5 672 481.5 672 502.5 693 c 128,-1,7
 523.5 714 523.5 714 553.5 714 c 0,8,9
 582.5 714 582.5 714 603.5 735 c 128,-1,10
 624.5 756 624.5 756 624.5 786 c 2,11,-1
 624.5 928 l 2,12,13
 624.5 958 624.5 958 645.5 979 c 128,-1,14
 666.5 1000 666.5 1000 696.5 1000 c 128,-1,15
 726.5 1000 726.5 1000 746.5 979 c 0,16,17
 767.5 958 767.5 958 767.5 928 c 2,18,-1
 767.5 571 l 2,19,20
 767.5 511 767.5 511 725.5 470 c 0,21,22
 683.5 428 683.5 428 624.5 428 c 0,0,1
410.5 0 m 0,23,24
 380.5 0 380.5 0 359.5 21 c 128,-1,25
 338.5 42 338.5 42 339.5 71 c 2,26,-1
 339.5 357 l 2,27,28
 339.5 386 339.5 386 318.5 407 c 128,-1,29
 297.5 428 297.5 428 267.5 428 c 2,30,-1
 196.5 428 l 2,31,32
 137.5 428 137.5 428 95.5 470 c 128,-1,33
 53.5 512 53.5 512 53.5 571 c 2,34,-1
 53.5 928 l 2,35,36
 53.5 957 53.5 957 74.5 979 c 0,37,38
 95.5 1000 95.5 1000 124.5 1000 c 2,39,-1
 196.5 1000 l 2,40,41
 255.5 1000 255.5 1000 297.5 958 c 128,-1,42
 339.5 916 339.5 916 339.5 857 c 2,43,-1
 339.5 500 l 2,44,45
 339.5 470 339.5 470 359.5 449 c 0,46,47
 380.5 428 380.5 428 410.5 428 c 0,48,49
 439.5 428 439.5 428 460.5 407 c 128,-1,50
 481.5 386 481.5 386 481.5 357 c 2,51,-1
 481.5 71 l 2,52,53
 481.5 41 481.5 41 460.5 21 c 0,54,55
 439.5 0 439.5 0 410.5 0 c 0,23,24
EndSplineSet
Validated: 524321
EndChar

StartChar: W
Encoding: 87 87 51
Width: 1106
Flags: W
HStem: 0 143<359.658 888.342> 857 143<359.658 888.342>
VStem: 53 286<209.97 835.342> 910 143<164.658 835.342>
LayerCount: 2
Fore
SplineSet
196 143 m 128,-1,1
 137 143 137 143 95 185 c 128,-1,2
 53 227 53 227 53 286 c 2,3,-1
 53 928 l 2,4,5
 53 957 53 957 74 979 c 0,6,7
 95 1000 95 1000 124 1000 c 2,8,-1
 839 1000 l 2,9,10
 868 1000 868 1000 889 979 c 128,-1,11
 910 958 910 958 910 928 c 0,12,13
 910 899 910 899 889 878 c 128,-1,14
 868 857 868 857 839 857 c 2,15,-1
 410 857 l 2,16,17
 380 857 380 857 359 836 c 128,-1,18
 338 815 338 815 339 786 c 2,19,-1
 339 286 l 2,20,21
 339 226 339 226 297 185 c 0,22,0
 255 143 255 143 196 143 c 128,-1,1
410 0 m 2,23,24
 380 0 380 0 359 21 c 0,25,26
 338.954545455 41.0454545455 338.954545455 41.0454545455 338.954545455 68.3801652893 c 0,27,28
 338.954545455 99.95 338.954545455 99.95 359 122 c 0,29,30
 380 143 380 143 410 143 c 2,31,-1
 839 143 l 2,32,33
 868 143 868 143 889 164 c 128,-1,34
 910 185 910 185 910 214 c 2,35,-1
 910 786 l 2,36,37
 910 815 910 815 931 836 c 128,-1,38
 952 857 952 857 981 857 c 0,39,40
 1011 857 1011 857 1032 836 c 128,-1,41
 1053 815 1053 815 1053 786 c 2,42,-1
 1053 71 l 2,43,44
 1053 41 1053 41 1032 21 c 0,45,46
 1011 0 1011 0 981 0 c 2,47,-1
 410 0 l 2,23,24
EndSplineSet
Validated: 524321
EndChar

StartChar: X
Encoding: 88 88 52
Width: 963
Flags: W
HStem: 0 143<359.658 602.342 788.658 888.342> 714 286<404.97 557.435>
VStem: 196 143<306.658 692.342> 338.977 285.023<780.358 932.804> 624 143<164.658 693.651>
LayerCount: 2
Fore
SplineSet
124 0 m 2,0,1
 94 0 94 0 74 21 c 0,2,3
 53 42 53 42 53 71 c 2,4,-1
 53 214 l 2,5,6
 53 244 53 244 74 265 c 128,-1,7
 95 286 95 286 124 286 c 128,-1,8
 153 286 153 286 175 306 c 0,9,10
 196 327 196 327 196 357 c 2,11,-1
 196 643 l 2,12,13
 196 673 196 673 217 693 c 0,14,15
 238 714 238 714 267 714 c 0,16,17
 297 714 297 714 318 693 c 128,-1,18
 339 672 339 672 339 643 c 2,19,-1
 339 214 l 2,20,21
 339 185 339 185 359 164 c 0,22,23
 380 143 380 143 410 143 c 2,24,-1
 553 143 l 2,25,26
 582 143 582 143 603 164 c 128,-1,27
 624 185 624 185 624 214 c 2,28,-1
 624 643 l 2,29,30
 624 673 624 673 603 693 c 0,31,32
 582 714 582 714 553 714 c 2,33,-1
 481 714 l 2,34,35
 422 714 422 714 380 756 c 0,36,37
 338.976744186 797.023255814 338.976744186 797.023255814 338.976744186 854.265008112 c 0,38,39
 338.976744186 915.976176971 338.976744186 915.976176971 380 958 c 0,40,41
 422 1000 422 1000 481 1000 c 0,42,43
 541 1000 541 1000 582 958 c 0,44,45
 624 916 624 916 624 857 c 2,46,-1
 624 786 l 2,47,48
 624 756 624 756 645 735 c 128,-1,49
 666 714 666 714 696 714 c 128,-1,50
 726 714 726 714 746 693 c 0,51,52
 767 672 767 672 767 643 c 2,53,-1
 767 214 l 2,54,55
 767 185 767 185 788 164 c 128,-1,56
 809 143 809 143 839 143 c 0,57,58
 868 143 868 143 889 122 c 128,-1,59
 910 101 910 101 910 71 c 128,-1,60
 910 41 910 41 889 21 c 0,61,62
 868 0 868 0 839 0 c 2,63,-1
 124 0 l 2,0,1
EndSplineSet
Validated: 524289
EndChar

StartChar: Y
Encoding: 89 89 53
Width: 821
Flags: W
HStem: 0 286<405.47 557.53> 857 143<218.158 317.842>
VStem: 53.5 143<592.689 835.342> 339.455 142.045<735.658 835.343> 339.477 285.023<67.787 218.804> 624.5 143<306.658 978.342>
LayerCount: 2
Fore
SplineSet
481.5 0 m 128,-1,1
 422.5 0 422.5 0 380.5 42 c 0,2,3
 339.476744186 83.023255814 339.476744186 83.023255814 339.476744186 140.265008112 c 0,4,5
 339.476744186 201.976176971 339.476744186 201.976176971 380.5 244 c 0,6,7
 422.5 286 422.5 286 481.5 286 c 2,8,-1
 553.5 286 l 2,9,10
 582.5 286 582.5 286 603.5 306 c 0,11,12
 624.5 327 624.5 327 624.5 357 c 2,13,-1
 624.5 928 l 2,14,15
 624.5 958 624.5 958 645.5 979 c 128,-1,16
 666.5 1000 666.5 1000 696.5 1000 c 128,-1,17
 726.5 1000 726.5 1000 746.5 979 c 0,18,19
 767.5 958 767.5 958 767.5 928 c 2,20,-1
 767.5 357 l 2,21,22
 767.5 327 767.5 327 746.5 306 c 0,23,24
 726.454545455 285.954545455 726.454545455 285.954545455 699.119834711 285.954545455 c 0,25,26
 697.818181818 285.954545455 697.818181818 285.954545455 696.5 286 c 0,27,28
 667.5 286 667.5 286 645.5 265 c 0,29,30
 624.5 244 624.5 244 624.5 214 c 2,31,-1
 624.5 143 l 2,32,33
 624.5 84 624.5 84 582.5 42 c 128,-1,0
 540.5 0 540.5 0 481.5 0 c 128,-1,1
196.5 286 m 0,34,35
 137.5 286 137.5 286 95.5 327 c 0,36,37
 53.5 369 53.5 369 53.5 428 c 2,38,-1
 53.5 928 l 2,39,40
 53.5 957 53.5 957 74.5 979 c 0,41,42
 95.5 1000 95.5 1000 124.5 1000 c 2,43,-1
 339.5 1000 l 2,44,45
 398.5 1000 398.5 1000 439.5 958 c 0,46,47
 481.5 916 481.5 916 481.5 857 c 2,48,-1
 481.5 786 l 2,49,50
 481.5 756 481.5 756 460.5 735 c 128,-1,51
 439.5 714 439.5 714 410.5 714 c 0,52,53
 380.5 714 380.5 714 359.5 735 c 0,54,55
 339.454545455 755.045454545 339.454545455 755.045454545 339.454545455 783.291322314 c 0,56,57
 339.454545455 815.045454545 339.454545455 815.045454545 318.5 836 c 128,-1,58
 297.5 857 297.5 857 267.5 857 c 0,59,60
 238.5 857 238.5 857 217.5 836 c 128,-1,61
 196.5 815 196.5 815 196.5 786 c 2,62,-1
 196.5 643 l 2,63,64
 196.5 614 196.5 614 217.5 592 c 0,65,66
 238.5 571 238.5 571 267.5 571 c 0,67,68
 297.5 571 297.5 571 318.5 550 c 128,-1,69
 339.5 529 339.5 529 339.5 500 c 2,70,-1
 339.5 428 l 2,71,72
 339.5 369 339.5 369 297.5 327 c 0,73,74
 256.476744186 285.976744186 256.476744186 285.976744186 199.234991888 285.976744186 c 0,75,76
 197.872093023 285.976744186 197.872093023 285.976744186 196.5 286 c 0,34,35
EndSplineSet
Validated: 524289
EndChar

StartChar: Z
Encoding: 90 90 54
Width: 963
Flags: W
HStem: 0 286<119.97 317.342> 0 143<359.658 602.342> 428 143<217.658 602.342> 980 20G<737.5 797> 980 20G<737.5 797>
VStem: 624 286<735.658 933.03> 624 143<164.658 406.342 592.658 692.342>
LayerCount: 2
Fore
SplineSet
196 0 m 2,0,1
 137 0 137 0 95 42 c 128,-1,2
 53 84 53 84 53 143 c 128,-1,3
 53 202 53 202 95 244 c 128,-1,4
 137 286 137 286 196 286 c 2,5,-1
 267 286 l 2,6,7
 297 286 297 286 318 265 c 128,-1,8
 339 244 339 244 339 214 c 0,9,10
 339 185 339 185 359 164 c 0,11,12
 380 143 380 143 410 143 c 2,13,-1
 553 143 l 2,14,15
 582 143 582 143 603 164 c 128,-1,16
 624 185 624 185 624 214 c 2,17,-1
 624 357 l 2,18,19
 624 386 624 386 603 407 c 128,-1,20
 582 428 582 428 553 428 c 2,21,-1
 267 428 l 2,22,23
 238 428 238 428 217 449 c 128,-1,24
 196 470 196 470 196 500 c 0,25,26
 196 529 196 529 217 550 c 128,-1,27
 238 571 238 571 267 571 c 2,28,-1
 553 571 l 2,29,30
 582 571 582 571 603 592 c 128,-1,31
 624 613 624 613 624 643 c 2,32,-1
 624 857 l 2,33,34
 624 916 624 916 666 958 c 128,-1,35
 708 1000 708 1000 767 1000 c 0,36,37
 827 1000 827 1000 868 958 c 0,38,39
 910 916 910 916 910 857 c 2,40,-1
 910 786 l 2,41,42
 910 756 910 756 889 735 c 128,-1,43
 868 714 868 714 839 714 c 0,44,45
 809 714 809 714 788 693 c 128,-1,46
 767 672 767 672 767 643 c 2,47,-1
 767 71 l 2,48,49
 767 41 767 41 746 21 c 0,50,51
 725 0 725 0 696 0 c 2,52,-1
 196 0 l 2,0,1
EndSplineSet
Validated: 1
EndChar

StartChar: backslash
Encoding: 92 92 55
Width: 535
Flags: W
HStem: 0 21G<395.5 425> 0 21G<395.5 425> 980 20G<110 226> 980 20G<110 226>
VStem: 53.5 286<592.689 933.03> 339.5 142<21.6582 406.342>
LayerCount: 2
Fore
SplineSet
410.5 0 m 0,0,1
 380.5 0 380.5 0 359.5 21 c 128,-1,2
 338.5 42 338.5 42 339.5 71 c 2,3,-1
 339.5 357 l 2,4,5
 339.5 386 339.5 386 318.5 407 c 128,-1,6
 297.5 428 297.5 428 267.5 428 c 2,7,-1
 196.5 428 l 2,8,9
 137.5 428 137.5 428 95.5 470 c 128,-1,10
 53.5 512 53.5 512 53.5 571 c 2,11,-1
 53.5 928 l 2,12,13
 53.5 957 53.5 957 74.5 979 c 0,14,15
 95.5 1000 95.5 1000 124.5 1000 c 2,16,-1
 196.5 1000 l 2,17,18
 255.5 1000 255.5 1000 297.5 958 c 128,-1,19
 339.5 916 339.5 916 339.5 857 c 2,20,-1
 339.5 643 l 2,21,22
 339.5 614 339.5 614 359.5 592 c 0,23,24
 380.5 571 380.5 571 410.5 571 c 0,25,26
 439.5 571 439.5 571 460.5 550 c 128,-1,27
 481.5 529 481.5 529 481.5 500 c 2,28,-1
 481.5 71 l 2,29,30
 481.5 41 481.5 41 460.5 21 c 0,31,32
 439.5 0 439.5 0 410.5 0 c 0,0,1
EndSplineSet
Validated: 524321
EndChar

StartChar: underscore
Encoding: 95 95 56
Width: 821
Flags: W
HStem: 0 143<75.1582 747.151>
LayerCount: 2
Fore
SplineSet
124.5 0 m 2,0,1
 94.5 0 94.5 0 74.5 21 c 0,2,3
 53.5 42 53.5 42 53.5 71 c 128,-1,4
 53.5 100 53.5 100 74.5 122 c 0,5,6
 95.5 143 95.5 143 124.5 143 c 2,7,-1
 696.5 143 l 2,8,9
 726.5 143 726.5 143 746.5 122 c 0,10,11
 767.5 101 767.5 101 767.5 71 c 128,-1,12
 767.5 41 767.5 41 746.5 21 c 0,13,14
 725.5 0 725.5 0 696.5 0 c 2,15,-1
 124.5 0 l 2,0,1
EndSplineSet
Validated: 524289
EndChar

StartChar: a
Encoding: 97 97 57
Width: 821
Flags: W
HStem: 0 21G<167 226 682 711> 0 21G<167 226 682 711> 286 142<360.158 602.842> 571 143<360.158 602.842> 980 20G<167 226 681.5 711.5> 980 20G<167 226 681.5 711.5>
VStem: 53.5 286<66.9697 264.342 735.658 933.03> 624.5 143<21.6582 264.342 735.658 978.342>
LayerCount: 2
Fore
SplineSet
124.5 571 m 2,0,1
 94.5 571 94.5 571 74.5 592 c 0,2,3
 53.5 613 53.5 613 53.5 643 c 2,4,-1
 53.5 857 l 2,5,6
 53.5 916 53.5 916 95.5 958 c 128,-1,7
 137.5 1000 137.5 1000 196.5 1000 c 128,-1,8
 255.5 1000 255.5 1000 297.5 958 c 128,-1,9
 339.5 916 339.5 916 339.5 857 c 2,10,-1
 339.5 786 l 2,11,12
 339.5 756 339.5 756 359.5 735 c 0,13,14
 380.5 714 380.5 714 410.5 714 c 2,15,-1
 553.5 714 l 2,16,17
 582.5 714 582.5 714 603.5 735 c 128,-1,18
 624.5 756 624.5 756 624.5 786 c 2,19,-1
 624.5 928 l 2,20,21
 624.5 958 624.5 958 645.5 979 c 128,-1,22
 666.5 1000 666.5 1000 696.5 1000 c 128,-1,23
 726.5 1000 726.5 1000 746.5 979 c 0,24,25
 767.5 958 767.5 958 767.5 928 c 2,26,-1
 767.5 714 l 2,27,28
 767.5 655 767.5 655 725.5 613 c 128,-1,29
 683.5 571 683.5 571 624.5 571 c 2,30,-1
 124.5 571 l 2,0,1
196.5 0 m 128,-1,32
 137.5 0 137.5 0 95.5 42 c 128,-1,33
 53.5 84 53.5 84 53.5 143 c 2,34,-1
 53.5 357 l 2,35,36
 53.5 386 53.5 386 74.5 407 c 128,-1,37
 95.5 428 95.5 428 124.5 428 c 2,38,-1
 624.5 428 l 2,39,40
 683.5 428 683.5 428 725.5 386 c 128,-1,41
 767.5 344 767.5 344 767.5 286 c 2,42,-1
 767.5 71 l 2,43,44
 767.5 41 767.5 41 746.5 21 c 0,45,46
 725.5 0 725.5 0 696.5 0 c 128,-1,47
 667.5 0 667.5 0 645.5 21 c 0,48,49
 624.5 42 624.5 42 624.5 71 c 2,50,-1
 624.5 214 l 2,51,52
 624.5 244 624.5 244 603.5 265 c 128,-1,53
 582.5 286 582.5 286 553.5 286 c 2,54,-1
 410.5 286 l 2,55,56
 380.5 286 380.5 286 359.5 265 c 128,-1,57
 338.5 244 338.5 244 339.5 214 c 2,58,-1
 339.5 143 l 2,59,60
 339.5 84 339.5 84 297.5 42 c 128,-1,31
 255.5 0 255.5 0 196.5 0 c 128,-1,32
EndSplineSet
Validated: 524321
EndChar

StartChar: b
Encoding: 98 98 58
Width: 963
Flags: W
HStem: 0 143<359.658 746.651> 428 143<359.658 745.342> 857 143<359.658 745.342>
VStem: 53 286<164.658 361.109 637.97 835.342> 767 143<163.349 406.342 592.689 835.342>
LayerCount: 2
Fore
SplineSet
196 571 m 128,-1,1
 137 571 137 571 95 613 c 128,-1,2
 53 655 53 655 53 714 c 2,3,-1
 53 857 l 2,4,5
 53 916 53 916 95 958 c 128,-1,6
 137 1000 137 1000 196 1000 c 2,7,-1
 767 1000 l 2,8,9
 827 1000 827 1000 868 958 c 0,10,11
 910 916 910 916 910 857 c 2,12,-1
 910 643 l 2,13,14
 910 614 910 614 889 592 c 0,15,16
 868 571 868 571 839 571 c 0,17,18
 809 571 809 571 788 592 c 128,-1,19
 767 613 767 613 767 643 c 2,20,-1
 767 786 l 2,21,22
 767 815 767 815 746 836 c 128,-1,23
 725 857 725 857 696 857 c 2,24,-1
 410 857 l 2,25,26
 380 857 380 857 359 836 c 128,-1,27
 338 815 338 815 339 786 c 2,28,-1
 339 714 l 2,29,30
 339 655 339 655 297 613 c 128,-1,0
 255 571 255 571 196 571 c 128,-1,1
410 428 m 2,31,32
 380 428 380 428 359 449 c 0,33,34
 338.954545455 469.045454545 338.954545455 469.045454545 338.954545455 497.291322314 c 0,35,36
 338.954545455 528.952272727 338.954545455 528.952272727 359 550 c 0,37,38
 380 571 380 571 410 571 c 2,39,-1
 696 571 l 2,40,41
 726 571 726 571 746 550 c 0,42,43
 767 529 767 529 767 500 c 0,44,45
 767 470 767 470 746 449 c 128,-1,46
 725 428 725 428 696 428 c 2,47,-1
 410 428 l 2,31,32
196 0 m 2,48,49
 137 0 137 0 95 42 c 128,-1,50
 53 84 53 84 53 143 c 2,51,-1
 53 286 l 2,52,53
 53 345 53 345 95 386 c 0,54,55
 137 428 137 428 196 428 c 128,-1,56
 255 428 255 428 297 386 c 128,-1,57
 339 344 339 344 339 286 c 2,58,-1
 339 214 l 2,59,60
 339 185 339 185 359 164 c 0,61,62
 380 143 380 143 410 143 c 2,63,-1
 696 143 l 2,64,65
 726 143 726 143 746 164 c 0,66,67
 767 185 767 185 767 214 c 2,68,-1
 767 357 l 2,69,70
 767 386 767 386 788 407 c 128,-1,71
 809 428 809 428 839 428 c 0,72,73
 868 428 868 428 889 407 c 128,-1,74
 910 386 910 386 910 357 c 2,75,-1
 910 143 l 2,76,77
 910 84 910 84 868 42 c 128,-1,78
 826 0 826 0 767 0 c 2,79,-1
 196 0 l 2,48,49
EndSplineSet
Validated: 524321
EndChar

StartChar: c
Encoding: 99 99 59
Width: 963
Flags: W
HStem: 0 21G<737.5 796.5> 0 21G<737.5 796.5> 428 572<119.97 272.03> 428 286<502.658 602.342>
VStem: 53 286<494.97 933.03> 481 143<449.658 692.342> 767 143<306.658 692.342>
LayerCount: 2
Fore
SplineSet
196 428 m 128,-1,1
 137 428 137 428 95 470 c 128,-1,2
 53 512 53 512 53 571 c 2,3,-1
 53 857 l 2,4,5
 53 916 53 916 95 958 c 128,-1,6
 137 1000 137 1000 196 1000 c 128,-1,7
 255 1000 255 1000 297 958 c 128,-1,8
 339 916 339 916 339 857 c 2,9,-1
 339 571 l 2,10,11
 339 511 339 511 297 470 c 0,12,0
 255 428 255 428 196 428 c 128,-1,1
767 0 m 128,-1,14
 708 0 708 0 666 42 c 128,-1,15
 624 84 624 84 624 143 c 2,16,-1
 624 214 l 2,17,18
 624 244 624 244 645 265 c 128,-1,19
 666 286 666 286 696 286 c 128,-1,20
 726 286 726 286 746 306 c 0,21,22
 767 327 767 327 767 357 c 2,23,-1
 767 643 l 2,24,25
 767 673 767 673 788 693 c 0,26,27
 809 714 809 714 839 714 c 0,28,29
 868 714 868 714 889 693 c 128,-1,30
 910 672 910 672 910 643 c 2,31,-1
 910 143 l 2,32,33
 910 84 910 84 868 42 c 128,-1,13
 826 0 826 0 767 0 c 128,-1,14
553 428 m 0,34,35
 523 428 523 428 502 449 c 128,-1,36
 481 470 481 470 481 500 c 2,37,-1
 481 643 l 2,38,39
 481 673 481 673 502 693 c 0,40,41
 523 714 523 714 553 714 c 0,42,43
 582 714 582 714 603 693 c 128,-1,44
 624 672 624 672 624 643 c 2,45,-1
 624 500 l 2,46,47
 624 470 624 470 603 449 c 128,-1,48
 582 428 582 428 553 428 c 0,34,35
EndSplineSet
Validated: 1
EndChar

StartChar: d
Encoding: 100 100 60
Width: 963
Flags: W
HStem: 0 21G<594 653.5> 0 21G<594 653.5> 428 143<359.658 602.342> 714 286<119.97 317.342> 857 143<359.658 745.342>
VStem: 481 286<66.9697 264.342> 624 143<306.658 406.342> 767 143<592.689 835.342>
LayerCount: 2
Fore
SplineSet
839 571 m 0,0,1
 809 571 809 571 788 592 c 128,-1,2
 767 613 767 613 767 643 c 2,3,-1
 767 786 l 2,4,5
 767 815 767 815 746 836 c 128,-1,6
 725 857 725 857 696 857 c 2,7,-1
 410 857 l 2,8,9
 380 857 380 857 359 836 c 0,10,11
 338.954545455 815.954545455 338.954545455 815.954545455 338.954545455 788.619834711 c 0,12,13
 338.954545455 755.954545455 338.954545455 755.954545455 318 735 c 128,-1,14
 297 714 297 714 267 714 c 2,15,-1
 196 714 l 2,16,17
 137 714 137 714 95 756 c 128,-1,18
 53 798 53 798 53 857 c 2,19,-1
 53 928 l 2,20,21
 53 957 53 957 74 979 c 0,22,23
 95 1000 95 1000 124 1000 c 2,24,-1
 839 1000 l 2,25,26
 868 1000 868 1000 889 979 c 128,-1,27
 910 958 910 958 910 928 c 2,28,-1
 910 643 l 2,29,30
 910 614 910 614 889 592 c 0,31,32
 868 571 868 571 839 571 c 0,0,1
624 0 m 0,33,34
 564 0 564 0 523 42 c 0,35,36
 481 84 481 84 481 143 c 2,37,-1
 481 214 l 2,38,39
 481 244 481 244 502 265 c 128,-1,40
 523 286 523 286 553 286 c 0,41,42
 582 286 582 286 603 306 c 0,43,44
 624 327 624 327 624 357 c 0,45,46
 624 386 624 386 603 407 c 128,-1,47
 582 428 582 428 553 428 c 2,48,-1
 410 428 l 2,49,50
 380 428 380 428 359 449 c 0,51,52
 338.954545455 469.045454545 338.954545455 469.045454545 338.954545455 497.291322314 c 0,53,54
 338.954545455 528.952272727 338.954545455 528.952272727 359 550 c 0,55,56
 380 571 380 571 410 571 c 2,57,-1
 624 571 l 2,58,59
 683 571 683 571 725 529 c 128,-1,60
 767 487 767 487 767 428 c 2,61,-1
 767 143 l 2,62,63
 767 84 767 84 725 42 c 128,-1,64
 683 0 683 0 624 0 c 0,33,34
EndSplineSet
Validated: 524289
EndChar

StartChar: e
Encoding: 101 101 61
Width: 1106
Flags: W
HStem: 0 21G<451.5 510.5 824 853.5> 0 21G<451.5 510.5 824 853.5> 285.977 714.023<119.97 271.213> 857 143<645.689 745.342 931.658 1031.34>
VStem: 53 286<351.97 933.03> 481 143<306.658 835.342> 767 143<21.6582 835.342>
LayerCount: 2
Fore
SplineSet
481 0 m 128,-1,1
 422 0 422 0 380 42 c 128,-1,2
 338 84 338 84 339 143 c 2,3,-1
 339 214 l 2,4,5
 339 244 339 244 359 265 c 0,6,7
 380 286 380 286 410 286 c 0,8,9
 439 286 439 286 460 306 c 0,10,11
 481 327 481 327 481 357 c 2,12,-1
 481 857 l 2,13,14
 481 916 481 916 523 958 c 128,-1,15
 565 1000 565 1000 624 1000 c 2,16,-1
 981 1000 l 2,17,18
 1011 1000 1011 1000 1032 979 c 128,-1,19
 1053 958 1053 958 1053 928 c 0,20,21
 1053 899 1053 899 1032 878 c 128,-1,22
 1011 857 1011 857 981 857 c 0,23,24
 952 857 952 857 931 836 c 128,-1,25
 910 815 910 815 910 786 c 2,26,-1
 910 71 l 2,27,28
 910 41 910 41 889 21 c 0,29,30
 868 0 868 0 839 0 c 0,31,32
 809 0 809 0 788 21 c 128,-1,33
 767 42 767 42 767 71 c 2,34,-1
 767 786 l 2,35,36
 767 815 767 815 746 836 c 128,-1,37
 725 857 725 857 696 857 c 128,-1,38
 667 857 667 857 645 836 c 0,39,40
 624 815 624 815 624 786 c 2,41,-1
 624 143 l 2,42,43
 624 84 624 84 582 42 c 128,-1,0
 540 0 540 0 481 0 c 128,-1,1
196 286 m 0,44,45
 137 286 137 286 95 327 c 0,46,47
 53 369 53 369 53 428 c 2,48,-1
 53 857 l 2,49,50
 53 916 53 916 95 958 c 128,-1,51
 137 1000 137 1000 196 1000 c 128,-1,52
 255 1000 255 1000 297 958 c 128,-1,53
 339 916 339 916 339 857 c 2,54,-1
 339 428 l 2,55,56
 339 369 339 369 297 327 c 0,57,58
 255.976744186 285.976744186 255.976744186 285.976744186 198.734991888 285.976744186 c 0,59,60
 197.372093023 285.976744186 197.372093023 285.976744186 196 286 c 0,44,45
EndSplineSet
Validated: 524321
EndChar

StartChar: f
Encoding: 102 102 62
Width: 963
Flags: W
HStem: 0 143<359.658 459.342> 143 143<645.628 888.342> 428 143<645.689 888.342> 980 20G<538 567.5> 980 20G<538 567.5>
VStem: 53 286<164.658 504.435> 481 143<306.658 406.342 592.689 978.342>
LayerCount: 2
Fore
SplineSet
624 143 m 2,0,1
 564 143 564 143 523 185 c 0,2,3
 481 227 481 227 481 286 c 2,4,-1
 481 928 l 2,5,6
 481 958 481 958 502 979 c 128,-1,7
 523 1000 523 1000 553 1000 c 0,8,9
 582 1000 582 1000 603 979 c 128,-1,10
 624 958 624 958 624 928 c 2,11,-1
 624 643 l 2,12,13
 624 614 624 614 645 592 c 0,14,15
 666 571 666 571 696 571 c 2,16,-1
 839 571 l 2,17,18
 868 571 868 571 889 550 c 128,-1,19
 910 529 910 529 910 500 c 0,20,21
 910 470 910 470 889 449 c 128,-1,22
 868 428 868 428 839 428 c 2,23,-1
 696 428 l 2,24,25
 667 428 667 428 645 407 c 0,26,27
 624 386 624 386 624 357 c 0,28,29
 624 327 624 327 645 306 c 0,30,31
 665.045454545 285.954545455 665.045454545 285.954545455 693.291322314 285.954545455 c 0,32,33
 694.636363636 285.954545455 694.636363636 285.954545455 696 286 c 2,34,-1
 839 286 l 2,35,36
 868 286 868 286 889 265 c 128,-1,37
 910 244 910 244 910 214 c 0,38,39
 910 185 910 185 889 164 c 128,-1,40
 868 143 868 143 839 143 c 2,41,-1
 624 143 l 2,0,1
196 0 m 2,42,43
 137 0 137 0 95 42 c 128,-1,44
 53 84 53 84 53 143 c 2,45,-1
 53 428 l 2,46,47
 53 488 53 488 95 529 c 0,48,49
 137 571 137 571 196 571 c 2,50,-1
 267 571 l 2,51,52
 297 571 297 571 318 550 c 128,-1,53
 339 529 339 529 339 500 c 2,54,-1
 339 214 l 2,55,56
 339 185 339 185 359 164 c 0,57,58
 380 143 380 143 410 143 c 0,59,60
 439 143 439 143 460 122 c 128,-1,61
 481 101 481 101 481 71 c 128,-1,62
 481 41 481 41 460 21 c 0,63,64
 439 0 439 0 410 0 c 2,65,-1
 196 0 l 2,42,43
EndSplineSet
Validated: 524289
EndChar

StartChar: g
Encoding: 103 103 63
Width: 963
Flags: W
HStem: 0 143<359.658 602.342> 714 286<502.658 602.342> 857 143<645.689 745.342>
VStem: 53 286<164.658 933.03> 481 143<735.658 835.342> 767 143<448.349 835.342>
LayerCount: 2
Fore
SplineSet
767 143 m 128,-1,1
 708 143 708 143 666 185 c 128,-1,2
 624 227 624 227 624 285 c 2,3,-1
 624 357 l 2,4,5
 624 386 624 386 645 407 c 128,-1,6
 666 428 666 428 696 428 c 128,-1,7
 726 428 726 428 746 449 c 0,8,9
 767 470 767 470 767 500 c 2,10,-1
 767 786 l 2,11,12
 767 815 767 815 746 836 c 128,-1,13
 725 857 725 857 696 857 c 128,-1,14
 667 857 667 857 645 836 c 0,15,16
 624 815 624 815 624 786 c 0,17,18
 624 756 624 756 603 735 c 128,-1,19
 582 714 582 714 553 714 c 0,20,21
 523 714 523 714 502 735 c 128,-1,22
 481 756 481 756 481 786 c 2,23,-1
 481 928 l 2,24,25
 481 957 481 957 502 979 c 0,26,27
 523 1000 523 1000 553 1000 c 2,28,-1
 839 1000 l 2,29,30
 868 1000 868 1000 889 979 c 128,-1,31
 910 958 910 958 910 928 c 2,32,-1
 910 286 l 2,33,34
 910 226 910 226 868 185 c 0,35,0
 826 143 826 143 767 143 c 128,-1,1
124 0 m 2,36,37
 94 0 94 0 74 21 c 0,38,39
 53 42 53 42 53 71 c 2,40,-1
 53 857 l 2,41,42
 53 916 53 916 95 958 c 128,-1,43
 137 1000 137 1000 196 1000 c 128,-1,44
 255 1000 255 1000 297 958 c 128,-1,45
 339 916 339 916 339 857 c 2,46,-1
 339 214 l 2,47,48
 339 185 339 185 359 164 c 0,49,50
 380 143 380 143 410 143 c 2,51,-1
 553 143 l 2,52,53
 582 143 582 143 603 122 c 128,-1,54
 624 101 624 101 624 71 c 128,-1,55
 624 41 624 41 603 21 c 0,56,57
 582 0 582 0 553 0 c 2,58,-1
 124 0 l 2,36,37
EndSplineSet
Validated: 1
EndChar

StartChar: h
Encoding: 104 104 64
Width: 1106
Flags: W
HStem: 0 286<120.289 317.342> 0 143<359.658 1031.34> 428 143<359.658 888.342> 714 286<119.97 317.342> 857 143<359.658 1031.34>
LayerCount: 2
Fore
SplineSet
196 714 m 2,0,1
 137 714 137 714 95 756 c 128,-1,2
 53 798 53 798 53 857 c 2,3,-1
 53 928 l 2,4,5
 53 957 53 957 74 979 c 0,6,7
 95 1000 95 1000 124 1000 c 2,8,-1
 981 1000 l 2,9,10
 1011 1000 1011 1000 1032 979 c 128,-1,11
 1053 958 1053 958 1053 928 c 0,12,13
 1053 899 1053 899 1032 878 c 128,-1,14
 1011 857 1011 857 981 857 c 2,15,-1
 410 857 l 2,16,17
 380 857 380 857 359 836 c 0,18,19
 338.954545455 815.954545455 338.954545455 815.954545455 338.954545455 788.619834711 c 0,20,21
 338.954545455 755.954545455 338.954545455 755.954545455 318 735 c 128,-1,22
 297 714 297 714 267 714 c 2,23,-1
 196 714 l 2,0,1
410 428 m 2,24,25
 380 428 380 428 359 449 c 0,26,27
 338.954545455 469.045454545 338.954545455 469.045454545 338.954545455 497.291322314 c 0,28,29
 338.954545455 528.952272727 338.954545455 528.952272727 359 550 c 0,30,31
 380 571 380 571 410 571 c 2,32,-1
 839 571 l 2,33,34
 868 571 868 571 889 550 c 128,-1,35
 910 529 910 529 910 500 c 0,36,37
 910 470 910 470 889 449 c 128,-1,38
 868 428 868 428 839 428 c 2,39,-1
 410 428 l 2,24,25
124 0 m 2,40,41
 94 0 94 0 74 21 c 0,42,43
 53 42 53 42 53 71 c 2,44,-1
 53 143 l 2,45,46
 53 202 53 202 95 244 c 128,-1,47
 137 286 137 286 196 286 c 2,48,-1
 267 286 l 2,49,50
 297 286 297 286 318 265 c 128,-1,51
 339 244 339 244 339 214 c 0,52,53
 339 185 339 185 359 164 c 0,54,55
 380 143 380 143 410 143 c 2,56,-1
 981 143 l 2,57,58
 1011 143 1011 143 1032 122 c 128,-1,59
 1053 101 1053 101 1053 71 c 128,-1,60
 1053 41 1053 41 1032 21 c 0,61,62
 1011 0 1011 0 981 0 c 2,63,-1
 124 0 l 2,40,41
EndSplineSet
Validated: 524289
EndChar

StartChar: i
Encoding: 105 105 65
Width: 392
Flags: W
HStem: 0 21G<252.5 282> 0 21G<252.5 282> 980 20G<166.5 282> 980 20G<166.5 282>
VStem: 53 286<734.349 932.633> 196 143<21.6582 693.651>
LayerCount: 2
Fore
SplineSet
267 0 m 0,0,1
 238 0 238 0 217 21 c 128,-1,2
 196 42 196 42 196 71 c 2,3,-1
 196 643 l 2,4,5
 196 673 196 673 175 693 c 0,6,7
 154 714 154 714 124 714 c 128,-1,8
 94 714 94 714 74 735 c 0,9,10
 53 756 53 756 53 786 c 2,11,-1
 53 857 l 2,12,13
 53 916 53 916 95 958 c 128,-1,14
 137 1000 137 1000 196 1000 c 2,15,-1
 267 1000 l 2,16,17
 297 1000 297 1000 318 979 c 128,-1,18
 339 958 339 958 339 928 c 2,19,-1
 339 71 l 2,20,21
 339 41 339 41 318 21 c 0,22,23
 297 0 297 0 267 0 c 0,0,1
EndSplineSet
Validated: 1
EndChar

StartChar: j
Encoding: 106 106 66
Width: 963
Flags: W
HStem: 0 143<74.6582 746.651> 571 143<73.3489 602.342> 980 20G<737.5 853.5> 980 20G<737.5 853.5>
VStem: 624 286<735.658 932.633> 767 143<164.658 549.342>
LayerCount: 2
Fore
SplineSet
124 0 m 2,0,1
 94 0 94 0 74 21 c 0,2,3
 53 42 53 42 53 71 c 128,-1,4
 53 100 53 100 74 122 c 0,5,6
 95 143 95 143 124 143 c 2,7,-1
 696 143 l 2,8,9
 726 143 726 143 746 164 c 0,10,11
 767 185 767 185 767 214 c 2,12,-1
 767 500 l 2,13,14
 767 529 767 529 746 550 c 128,-1,15
 725 571 725 571 696 571 c 2,16,-1
 124 571 l 2,17,18
 94 571 94 571 74 592 c 0,19,20
 53 613 53 613 53 643 c 128,-1,21
 53 673 53 673 74 693 c 0,22,23
 95 714 95 714 124 714 c 2,24,-1
 553 714 l 2,25,26
 582 714 582 714 603 735 c 128,-1,27
 624 756 624 756 624 786 c 2,28,-1
 624 857 l 2,29,30
 624 916 624 916 666 958 c 128,-1,31
 708 1000 708 1000 767 1000 c 2,32,-1
 839 1000 l 2,33,34
 868 1000 868 1000 889 979 c 128,-1,35
 910 958 910 958 910 928 c 2,36,-1
 910 214 l 2,37,38
 910 185 910 185 889 164 c 128,-1,39
 868 143 868 143 839 143 c 0,40,41
 809 143 809 143 788 122 c 128,-1,42
 767 101 767 101 767 71 c 128,-1,43
 767 41 767 41 746 21 c 0,44,45
 725 0 725 0 696 0 c 2,46,-1
 124 0 l 2,0,1
EndSplineSet
Validated: 1
EndChar

StartChar: k
Encoding: 107 107 67
Width: 963
Flags: W
HStem: 0 143<74.6582 746.651> 714 286<119.97 317.342> 857 143<359.658 745.342>
VStem: 767 143<163.349 835.342>
LayerCount: 2
Fore
SplineSet
124 0 m 2,0,1
 94 0 94 0 74 21 c 0,2,3
 53 42 53 42 53 71 c 128,-1,4
 53 100 53 100 74 122 c 0,5,6
 95 143 95 143 124 143 c 2,7,-1
 696 143 l 2,8,9
 726 143 726 143 746 164 c 0,10,11
 767 185 767 185 767 214 c 2,12,-1
 767 786 l 2,13,14
 767 815 767 815 746 836 c 128,-1,15
 725 857 725 857 696 857 c 2,16,-1
 410 857 l 2,17,18
 380 857 380 857 359 836 c 0,19,20
 338.954545455 815.954545455 338.954545455 815.954545455 338.954545455 788.619834711 c 0,21,22
 338.954545455 755.954545455 338.954545455 755.954545455 318 735 c 128,-1,23
 297 714 297 714 267 714 c 2,24,-1
 196 714 l 2,25,26
 137 714 137 714 95 756 c 128,-1,27
 53 798 53 798 53 857 c 2,28,-1
 53 928 l 2,29,30
 53 957 53 957 74 979 c 0,31,32
 95 1000 95 1000 124 1000 c 2,33,-1
 839 1000 l 2,34,35
 868 1000 868 1000 889 979 c 128,-1,36
 910 958 910 958 910 928 c 2,37,-1
 910 71 l 2,38,39
 910 41 910 41 889 21 c 0,40,41
 868 0 868 0 839 0 c 2,42,-1
 124 0 l 2,0,1
EndSplineSet
Validated: 524289
EndChar

StartChar: l
Encoding: 108 108 68
Width: 678
Flags: W
HStem: 0 143<360.158 459.842> 980 20G<538.5 568> 980 20G<538.5 568>
VStem: 481.5 143<164.658 978.342>
LayerCount: 2
Fore
SplineSet
410.5 0 m 2,0,1
 380.5 0 380.5 0 359.5 21 c 0,2,3
 339.454545455 41.0454545455 339.454545455 41.0454545455 339.454545455 68.3801652893 c 0,4,5
 339.454545455 100.047619048 339.454545455 100.047619048 318.5 122 c 0,6,7
 297.5 143 297.5 143 267.5 143 c 2,8,-1
 196.5 143 l 2,9,10
 137.5 143 137.5 143 95.5 185 c 128,-1,11
 53.5 227 53.5 227 53.5 285 c 2,12,-1
 53.5 357 l 2,13,14
 53.5 386 53.5 386 74.5 407 c 128,-1,15
 95.5 428 95.5 428 124.5 428 c 2,16,-1
 196.5 428 l 2,17,18
 255.5 428 255.5 428 297.5 386 c 128,-1,19
 339.5 344 339.5 344 339.5 286 c 2,20,-1
 339.5 214 l 2,21,22
 339.5 185 339.5 185 359.5 164 c 0,23,24
 380.5 143 380.5 143 410.5 143 c 0,25,26
 439.5 143 439.5 143 460.5 164 c 128,-1,27
 481.5 185 481.5 185 481.5 214 c 2,28,-1
 481.5 928 l 2,29,30
 481.5 958 481.5 958 502.5 979 c 128,-1,31
 523.5 1000 523.5 1000 553.5 1000 c 0,32,33
 582.5 1000 582.5 1000 603.5 979 c 128,-1,34
 624.5 958 624.5 958 624.5 928 c 2,35,-1
 624.5 71 l 2,36,37
 624.5 41 624.5 41 603.5 21 c 0,38,39
 582.5 0 582.5 0 553.5 0 c 2,40,-1
 410.5 0 l 2,0,1
EndSplineSet
Validated: 524289
EndChar

StartChar: m
Encoding: 109 109 69
Width: 963
Flags: W
HStem: 0 143<359.658 746.651> 714 286<788.658 888.342> 857 143<359.658 745.342>
VStem: 196 143<449.658 835.342> 767 143<735.658 835.342>
LayerCount: 2
Fore
SplineSet
124 0 m 2,0,1
 94 0 94 0 74 21 c 0,2,3
 53 42 53 42 53 71 c 2,4,-1
 53 357 l 2,5,6
 53 386 53 386 74 407 c 128,-1,7
 95 428 95 428 124 428 c 128,-1,8
 153 428 153 428 175 449 c 0,9,10
 196 470 196 470 196 500 c 2,11,-1
 196 785 l 2,12,13
 196 815 196 815 217 836 c 128,-1,14
 238 857 238 857 267 857 c 0,15,16
 297 857 297 857 318 878 c 128,-1,17
 339 899 339 899 339 928 c 128,-1,18
 339 957 339 957 359 979 c 0,19,20
 380 1000 380 1000 410 1000 c 2,21,-1
 839 1000 l 2,22,23
 868 1000 868 1000 889 979 c 128,-1,24
 910 958 910 958 910 928 c 2,25,-1
 910 786 l 2,26,27
 910 756 910 756 889 735 c 128,-1,28
 868 714 868 714 839 714 c 0,29,30
 809 714 809 714 788 735 c 128,-1,31
 767 756 767 756 767 786 c 0,32,33
 767 815 767 815 746 836 c 128,-1,34
 725 857 725 857 696 857 c 2,35,-1
 481 857 l 1,36,-1
 405 857 l 2,37,38
 379 855 379 855 359 836 c 0,39,40
 338 815 338 815 339 786 c 2,41,-1
 339 214 l 2,42,43
 339 185 339 185 359 164 c 0,44,45
 380 143 380 143 410 143 c 2,46,-1
 696 143 l 2,47,48
 726 143 726 143 746 122 c 0,49,50
 767 101 767 101 767 71 c 128,-1,51
 767 41 767 41 746 21 c 0,52,53
 725 0 725 0 696 0 c 2,54,-1
 124 0 l 2,0,1
EndSplineSet
Validated: 33
EndChar

StartChar: n
Encoding: 110 110 70
Width: 963
Flags: W
HStem: 0 143<217.658 459.342> 714 286<217.658 317.342 690.797 786.826>
VStem: 53 286<735.658 932.633> 53 143<164.658 692.342> 481 143<164.658 692.342> 624 286<735.658 933.03> 767 143<21.6582 693.651>
LayerCount: 2
Fore
SplineSet
196 0 m 2,0,1
 137 0 137 0 95 42 c 128,-1,2
 53 84 53 84 53 143 c 2,3,-1
 53 857 l 2,4,5
 53 916 53 916 95 958 c 128,-1,6
 137 1000 137 1000 196 1000 c 2,7,-1
 267 1000 l 2,8,9
 297 1000 297 1000 318 979 c 128,-1,10
 339 958 339 958 339 928 c 2,11,-1
 339 786 l 2,12,13
 339 756 339 756 318 735 c 128,-1,14
 297 714 297 714 267 714 c 0,15,16
 238 714 238 714 217 693 c 128,-1,17
 196 672 196 672 196 643 c 2,18,-1
 196 214 l 2,19,20
 196 185 196 185 217 164 c 128,-1,21
 238 143 238 143 267 143 c 2,22,-1
 410 143 l 2,23,24
 439 143 439 143 460 164 c 128,-1,25
 481 185 481 185 481 214 c 2,26,-1
 481 643 l 2,27,28
 481 672 481 672 502 693 c 128,-1,29
 523 714 523 714 553 714 c 0,30,31
 582 714 582 714 603 735 c 128,-1,32
 624 756 624 756 624 786 c 2,33,-1
 624 857 l 2,34,35
 624 916 624 916 666 958 c 128,-1,36
 708 1000 708 1000 767 1000 c 0,37,38
 827 1000 827 1000 868 958 c 0,39,40
 910 916 910 916 910 857 c 2,41,-1
 910 71 l 2,42,43
 910 41 910 41 889 21 c 0,44,45
 868 0 868 0 839 0 c 0,46,47
 809 0 809 0 788 21 c 128,-1,48
 767 42 767 42 767 71 c 2,49,-1
 767 643 l 2,50,51
 767 673 767 673 746 693 c 0,52,53
 725 714 725 714 696 714 c 128,-1,54
 667 714 667 714 645 693 c 0,55,56
 624 672 624 672 624 643 c 2,57,-1
 624 71 l 2,58,59
 624 41 624 41 603 21 c 0,60,61
 582 0 582 0 553 0 c 2,62,-1
 196 0 l 2,0,1
EndSplineSet
Validated: 1
EndChar

StartChar: o
Encoding: 111 111 71
Width: 963
Flags: W
HStem: 0 143<359.658 602.342 788.658 888.342> 857 143<359.658 602.342>
VStem: 53 286<164.658 550.651> 196 143<592.658 835.342> 624 143<164.658 835.342>
LayerCount: 2
Fore
SplineSet
124 0 m 2,0,1
 94 0 94 0 74 21 c 0,2,3
 53 42 53 42 53 71 c 2,4,-1
 53 500 l 2,5,6
 53 530 53 530 74 550 c 0,7,8
 95 571 95 571 124 571 c 128,-1,9
 153 571 153 571 175 592 c 0,10,11
 196 613 196 613 196 643 c 2,12,-1
 196 857 l 2,13,14
 196 916 196 916 238 958 c 128,-1,15
 280 1000 280 1000 339 1000 c 2,16,-1
 624 1000 l 2,17,18
 683 1000 683 1000 725 958 c 128,-1,19
 767 916 767 916 767 857 c 2,20,-1
 767 214 l 2,21,22
 767 185 767 185 788 164 c 128,-1,23
 809 143 809 143 839 143 c 0,24,25
 868 143 868 143 889 122 c 128,-1,26
 910 101 910 101 910 71 c 128,-1,27
 910 41 910 41 889 21 c 0,28,29
 868 0 868 0 839 0 c 2,30,-1
 124 0 l 2,0,1
553 143 m 2,31,32
 582 143 582 143 603 164 c 128,-1,33
 624 185 624 185 624 214 c 2,34,-1
 624 786 l 2,35,36
 624 815 624 815 603 836 c 128,-1,37
 582 857 582 857 553 857 c 2,38,-1
 410 857 l 2,39,40
 380 857 380 857 359 836 c 128,-1,41
 338 815 338 815 339 786 c 2,42,-1
 339 214 l 2,43,44
 339 185 339 185 359 164 c 0,45,46
 380 143 380 143 410 143 c 2,47,-1
 553 143 l 2,31,32
EndSplineSet
Validated: 33
EndChar

StartChar: p
Encoding: 112 112 72
Width: 821
Flags: W
HStem: 0 143<360.158 602.842> 714 286<360.158 459.842> 857 143<218.158 317.842>
VStem: 53.5 286<164.658 549.342> 53.5 143<592.689 835.342> 339.455 142.045<735.658 835.343> 624.5 143<164.658 978.342>
LayerCount: 2
Fore
SplineSet
196.5 0 m 2,0,1
 137.5 0 137.5 0 95.5 42 c 128,-1,2
 53.5 84 53.5 84 53.5 143 c 2,3,-1
 53.5 857 l 2,4,5
 53.5 916 53.5 916 95.5 958 c 128,-1,6
 137.5 1000 137.5 1000 196.5 1000 c 2,7,-1
 410.5 1000 l 2,8,9
 439.5 1000 439.5 1000 460.5 979 c 128,-1,10
 481.5 958 481.5 958 481.5 928 c 2,11,-1
 481.5 786 l 2,12,13
 481.5 756 481.5 756 460.5 735 c 128,-1,14
 439.5 714 439.5 714 410.5 714 c 0,15,16
 380.5 714 380.5 714 359.5 735 c 0,17,18
 339.454545455 755.045454545 339.454545455 755.045454545 339.454545455 783.291322314 c 0,19,20
 339.454545455 815.045454545 339.454545455 815.045454545 318.5 836 c 128,-1,21
 297.5 857 297.5 857 267.5 857 c 0,22,23
 238.5 857 238.5 857 217.5 836 c 128,-1,24
 196.5 815 196.5 815 196.5 786 c 2,25,-1
 196.5 643 l 2,26,27
 196.5 614 196.5 614 217.5 592 c 0,28,29
 238.5 571 238.5 571 267.5 571 c 0,30,31
 297.5 571 297.5 571 318.5 550 c 128,-1,32
 339.5 529 339.5 529 339.5 500 c 2,33,-1
 339.5 214 l 2,34,35
 339.5 185 339.5 185 359.5 164 c 0,36,37
 380.5 143 380.5 143 410.5 143 c 2,38,-1
 553.5 143 l 2,39,40
 582.5 143 582.5 143 603.5 164 c 128,-1,41
 624.5 185 624.5 185 624.5 214 c 2,42,-1
 624.5 928 l 2,43,44
 624.5 958 624.5 958 645.5 979 c 128,-1,45
 666.5 1000 666.5 1000 696.5 1000 c 128,-1,46
 726.5 1000 726.5 1000 746.5 979 c 0,47,48
 767.5 958 767.5 958 767.5 928 c 2,49,-1
 767.5 71 l 2,50,51
 767.5 41 767.5 41 746.5 21 c 0,52,53
 725.5 0 725.5 0 696.5 0 c 2,54,-1
 196.5 0 l 2,0,1
EndSplineSet
Validated: 524289
EndChar

StartChar: q
Encoding: 113 113 73
Width: 963
Flags: W
HStem: 0 143<359.658 746.651> 714 286<788.658 888.342> 857 143<359.658 745.342>
VStem: 53 286<209.97 835.342> 338.955 428.045<21.6282 121.309> 767 143<735.658 835.342>
LayerCount: 2
Fore
SplineSet
196 143 m 128,-1,1
 137 143 137 143 95 185 c 128,-1,2
 53 227 53 227 53 286 c 2,3,-1
 53 928 l 2,4,5
 53 957 53 957 74 979 c 0,6,7
 95 1000 95 1000 124 1000 c 2,8,-1
 839 1000 l 2,9,10
 868 1000 868 1000 889 979 c 128,-1,11
 910 958 910 958 910 928 c 2,12,-1
 910 786 l 2,13,14
 910 756 910 756 889 735 c 128,-1,15
 868 714 868 714 839 714 c 0,16,17
 809 714 809 714 788 735 c 128,-1,18
 767 756 767 756 767 786 c 0,19,20
 767 815 767 815 746 836 c 128,-1,21
 725 857 725 857 696 857 c 2,22,-1
 410 857 l 2,23,24
 380 857 380 857 359 836 c 128,-1,25
 338 815 338 815 339 786 c 2,26,-1
 339 286 l 2,27,28
 339 226 339 226 297 185 c 0,29,0
 255 143 255 143 196 143 c 128,-1,1
410 0 m 2,30,31
 380 0 380 0 359 21 c 0,32,33
 338.954545455 41.0454545455 338.954545455 41.0454545455 338.954545455 68.3801652893 c 0,34,35
 338.954545455 99.95 338.954545455 99.95 359 122 c 0,36,37
 380 143 380 143 410 143 c 2,38,-1
 696 143 l 2,39,40
 726 143 726 143 746 122 c 0,41,42
 767 101 767 101 767 71 c 128,-1,43
 767 41 767 41 746 21 c 0,44,45
 725 0 725 0 696 0 c 2,46,-1
 410 0 l 2,30,31
EndSplineSet
Validated: 524321
EndChar

StartChar: r
Encoding: 114 114 74
Width: 963
Flags: W
HStem: 0 21G<594 653.5> 0 21G<594 653.5> 714 286<119.97 317.342> 857 143<359.658 745.342>
VStem: 481 286<66.9697 264.342> 624 143<306.658 549.342> 767 143<592.689 835.342>
LayerCount: 2
Fore
SplineSet
839 571 m 0,0,1
 809 571 809 571 788 592 c 128,-1,2
 767 613 767 613 767 643 c 2,3,-1
 767 786 l 2,4,5
 767 815 767 815 746 836 c 128,-1,6
 725 857 725 857 696 857 c 2,7,-1
 410 857 l 2,8,9
 380 857 380 857 359 836 c 0,10,11
 338.954545455 815.954545455 338.954545455 815.954545455 338.954545455 788.619834711 c 0,12,13
 338.954545455 755.954545455 338.954545455 755.954545455 318 735 c 128,-1,14
 297 714 297 714 267 714 c 2,15,-1
 196 714 l 2,16,17
 137 714 137 714 95 756 c 128,-1,18
 53 798 53 798 53 857 c 2,19,-1
 53 928 l 2,20,21
 53 957 53 957 74 979 c 0,22,23
 95 1000 95 1000 124 1000 c 2,24,-1
 839 1000 l 2,25,26
 868 1000 868 1000 889 979 c 128,-1,27
 910 958 910 958 910 928 c 2,28,-1
 910 643 l 2,29,30
 910 614 910 614 889 592 c 0,31,32
 868 571 868 571 839 571 c 0,0,1
624 0 m 0,33,34
 564 0 564 0 523 42 c 0,35,36
 481 84 481 84 481 143 c 2,37,-1
 481 214 l 2,38,39
 481 244 481 244 502 265 c 128,-1,40
 523 286 523 286 553 286 c 0,41,42
 582 286 582 286 603 306 c 0,43,44
 624 327 624 327 624 357 c 2,45,-1
 624 500 l 2,46,47
 624 529 624 529 645 550 c 128,-1,48
 666 571 666 571 696 571 c 128,-1,49
 726 571 726 571 746 550 c 0,50,51
 767 529 767 529 767 500 c 2,52,-1
 767 143 l 2,53,54
 767 84 767 84 725 42 c 128,-1,55
 683 0 683 0 624 0 c 0,33,34
EndSplineSet
Validated: 524289
EndChar

StartChar: s
Encoding: 115 115 75
Width: 963
Flags: W
HStem: 0 143<217.658 602.342> 286 142<359.658 767> 428 572<119.97 271.633>
VStem: 53 286<495.367 933.03> 196 428<21.6582 121.311> 624 286<735.658 932.633> 767 143<21.6582 286 428 693.651>
LayerCount: 2
Fore
SplineSet
839 0 m 0,0,1
 809 0 809 0 788 21 c 128,-1,2
 767 42 767 42 767 71 c 2,3,-1
 767 286 l 1,4,-1
 410 286 l 2,5,6
 380 286 380 286 359 306 c 0,7,8
 338.954545455 326.045454545 338.954545455 326.045454545 338.954545455 354.291322314 c 0,9,10
 338.954545455 386.045454545 338.954545455 386.045454545 318 407 c 128,-1,11
 297 428 297 428 267 428 c 2,12,-1
 196 428 l 2,13,14
 137 428 137 428 95 470 c 128,-1,15
 53 512 53 512 53 571 c 2,16,-1
 53 857 l 2,17,18
 53 916 53 916 95 958 c 128,-1,19
 137 1000 137 1000 196 1000 c 128,-1,20
 255 1000 255 1000 297 958 c 128,-1,21
 339 916 339 916 339 857 c 2,22,-1
 339 500 l 2,23,24
 339 470 339 470 359 449 c 0,25,26
 380 428 380 428 410 428 c 2,27,-1
 767 428 l 1,28,-1
 767 643 l 2,29,30
 767 673 767 673 746 693 c 0,31,32
 725 714 725 714 696 714 c 128,-1,33
 667 714 667 714 645 735 c 0,34,35
 624 756 624 756 624 786 c 2,36,-1
 624 857 l 2,37,38
 624 916 624 916 666 958 c 128,-1,39
 708 1000 708 1000 767 1000 c 2,40,-1
 839 1000 l 2,41,42
 868 1000 868 1000 889 979 c 128,-1,43
 910 958 910 958 910 928 c 2,44,-1
 910 71 l 2,45,46
 910 41 910 41 889 21 c 0,47,48
 868 0 868 0 839 0 c 0,0,1
267 0 m 2,49,50
 238 0 238 0 217 21 c 128,-1,51
 196 42 196 42 196 71 c 128,-1,52
 196 100 196 100 217 122 c 0,53,54
 238 143 238 143 267 143 c 2,55,-1
 553 143 l 2,56,57
 582 143 582 143 603 122 c 128,-1,58
 624 101 624 101 624 71 c 128,-1,59
 624 41 624 41 603 21 c 0,60,61
 582 0 582 0 553 0 c 2,62,-1
 267 0 l 2,49,50
EndSplineSet
Validated: 524289
EndChar

StartChar: t
Encoding: 116 116 76
Width: 963
Flags: W
HStem: 0 143<359.658 459.342 645.658 746.651> 143 285<119.97 271.633 788.658 888.342> 980 20G<538 567.5> 980 20G<538 567.5>
VStem: 481 143<164.658 978.342> 767 143<164.658 406.342>
LayerCount: 2
Fore
SplineSet
410 0 m 2,0,1
 380 0 380 0 359 21 c 0,2,3
 338.954545455 41.0454545455 338.954545455 41.0454545455 338.954545455 68.3801652893 c 0,4,5
 338.954545455 100.047619048 338.954545455 100.047619048 318 122 c 0,6,7
 297 143 297 143 267 143 c 2,8,-1
 196 143 l 2,9,10
 137 143 137 143 95 185 c 128,-1,11
 53 227 53 227 53 285 c 2,12,-1
 53 357 l 2,13,14
 53 386 53 386 74 407 c 128,-1,15
 95 428 95 428 124 428 c 2,16,-1
 196 428 l 2,17,18
 255 428 255 428 297 386 c 128,-1,19
 339 344 339 344 339 286 c 2,20,-1
 339 214 l 2,21,22
 339 185 339 185 359 164 c 0,23,24
 380 143 380 143 410 143 c 0,25,26
 439 143 439 143 460 164 c 128,-1,27
 481 185 481 185 481 214 c 2,28,-1
 481 928 l 2,29,30
 481 958 481 958 502 979 c 128,-1,31
 523 1000 523 1000 553 1000 c 0,32,33
 582 1000 582 1000 603 979 c 128,-1,34
 624 958 624 958 624 928 c 2,35,-1
 624 214 l 2,36,37
 624 185 624 185 645 164 c 128,-1,38
 666 143 666 143 696 143 c 128,-1,39
 726 143 726 143 746 164 c 0,40,41
 767 185 767 185 767 214 c 2,42,-1
 767 357 l 2,43,44
 767 386 767 386 788 407 c 128,-1,45
 809 428 809 428 839 428 c 0,46,47
 868 428 868 428 889 407 c 128,-1,48
 910 386 910 386 910 357 c 2,49,-1
 910 214 l 2,50,51
 910 185 910 185 889 164 c 128,-1,52
 868 143 868 143 839 143 c 0,53,54
 809 143 809 143 788 122 c 128,-1,55
 767 101 767 101 767 71 c 128,-1,56
 767 41 767 41 746 21 c 0,57,58
 725 0 725 0 696 0 c 2,59,-1
 410 0 l 2,0,1
EndSplineSet
Validated: 524289
EndChar

StartChar: u
Encoding: 117 117 77
Width: 963
Flags: W
HStem: 0 143<359.658 746.651> 143 857<119.97 272.03> 571 286<502.658 602.342> 857 143<645.658 745.374>
VStem: 53 286<209.97 933.03> 481 143<592.689 835.342> 767 143<163.349 835.342>
LayerCount: 2
Fore
SplineSet
410 0 m 2,0,1
 380 0 380 0 359 21 c 0,2,3
 338.954545455 41.0454545455 338.954545455 41.0454545455 338.954545455 68.3801652893 c 0,4,5
 338.954545455 99.95 338.954545455 99.95 359 122 c 0,6,7
 380 143 380 143 410 143 c 2,8,-1
 696 143 l 2,9,10
 726 143 726 143 746 164 c 0,11,12
 767 185 767 185 767 214 c 2,13,-1
 767 786 l 2,14,15
 767 815 767 815 746 836 c 0,16,17
 726 855 726 855 700 857 c 2,18,-1
 691 857 l 2,19,20
 665 855 665 855 645 836 c 0,21,22
 624 815 624 815 624 786 c 2,23,-1
 624 643 l 2,24,25
 624 614 624 614 603 592 c 0,26,27
 582 571 582 571 553 571 c 0,28,29
 523 571 523 571 502 592 c 128,-1,30
 481 613 481 613 481 643 c 2,31,-1
 481 785 l 2,32,33
 481 815 481 815 502 836 c 128,-1,34
 523 857 523 857 553 857 c 0,35,36
 582 857 582 857 603 878 c 128,-1,37
 624 899 624 899 624 928 c 128,-1,38
 624 957 624 957 645 979 c 0,39,40
 666 1000 666 1000 696 1000 c 2,41,-1
 839 1000 l 2,42,43
 868 1000 868 1000 889 979 c 128,-1,44
 910 958 910 958 910 928 c 2,45,-1
 910 71 l 2,46,47
 910 41 910 41 889 21 c 0,48,49
 868 0 868 0 839 0 c 2,50,-1
 410 0 l 2,0,1
196 143 m 128,-1,52
 137 143 137 143 95 185 c 128,-1,53
 53 227 53 227 53 286 c 2,54,-1
 53 857 l 2,55,56
 53 916 53 916 95 958 c 128,-1,57
 137 1000 137 1000 196 1000 c 128,-1,58
 255 1000 255 1000 297 958 c 128,-1,59
 339 916 339 916 339 857 c 2,60,-1
 339 286 l 2,61,62
 339 226 339 226 297 185 c 0,63,51
 255 143 255 143 196 143 c 128,-1,52
EndSplineSet
Validated: 524289
EndChar

StartChar: v
Encoding: 118 118 78
Width: 821
Flags: W
HStem: 0 428<360.158 459.842> 980 20G<110 226 681.5 711.5> 980 20G<110 226 681.5 711.5>
VStem: 53.5 286<495.367 933.03> 339.5 142<21.6582 406.342> 481.5 286<494.97 692.342> 624.5 143<735.658 978.342>
LayerCount: 2
Fore
SplineSet
624.5 428 m 0,0,1
 564.5 428 564.5 428 523.5 470 c 0,2,3
 481.5 512 481.5 512 481.5 571 c 2,4,-1
 481.5 643 l 2,5,6
 481.5 672 481.5 672 502.5 693 c 128,-1,7
 523.5 714 523.5 714 553.5 714 c 0,8,9
 582.5 714 582.5 714 603.5 735 c 128,-1,10
 624.5 756 624.5 756 624.5 786 c 2,11,-1
 624.5 928 l 2,12,13
 624.5 958 624.5 958 645.5 979 c 128,-1,14
 666.5 1000 666.5 1000 696.5 1000 c 128,-1,15
 726.5 1000 726.5 1000 746.5 979 c 0,16,17
 767.5 958 767.5 958 767.5 928 c 2,18,-1
 767.5 571 l 2,19,20
 767.5 511 767.5 511 725.5 470 c 0,21,22
 683.5 428 683.5 428 624.5 428 c 0,0,1
410.5 0 m 0,23,24
 380.5 0 380.5 0 359.5 21 c 128,-1,25
 338.5 42 338.5 42 339.5 71 c 2,26,-1
 339.5 357 l 2,27,28
 339.5 386 339.5 386 318.5 407 c 128,-1,29
 297.5 428 297.5 428 267.5 428 c 2,30,-1
 196.5 428 l 2,31,32
 137.5 428 137.5 428 95.5 470 c 128,-1,33
 53.5 512 53.5 512 53.5 571 c 2,34,-1
 53.5 928 l 2,35,36
 53.5 957 53.5 957 74.5 979 c 0,37,38
 95.5 1000 95.5 1000 124.5 1000 c 2,39,-1
 196.5 1000 l 2,40,41
 255.5 1000 255.5 1000 297.5 958 c 128,-1,42
 339.5 916 339.5 916 339.5 857 c 2,43,-1
 339.5 500 l 2,44,45
 339.5 470 339.5 470 359.5 449 c 0,46,47
 380.5 428 380.5 428 410.5 428 c 0,48,49
 439.5 428 439.5 428 460.5 407 c 128,-1,50
 481.5 386 481.5 386 481.5 357 c 2,51,-1
 481.5 71 l 2,52,53
 481.5 41 481.5 41 460.5 21 c 0,54,55
 439.5 0 439.5 0 410.5 0 c 0,23,24
EndSplineSet
Validated: 524321
EndChar

StartChar: w
Encoding: 119 119 79
Width: 1106
Flags: W
HStem: 0 143<359.658 888.342> 857 143<359.658 888.342>
VStem: 53 286<209.97 835.342> 910 143<164.658 835.342>
LayerCount: 2
Fore
SplineSet
196 143 m 128,-1,1
 137 143 137 143 95 185 c 128,-1,2
 53 227 53 227 53 286 c 2,3,-1
 53 928 l 2,4,5
 53 957 53 957 74 979 c 0,6,7
 95 1000 95 1000 124 1000 c 2,8,-1
 839 1000 l 2,9,10
 868 1000 868 1000 889 979 c 128,-1,11
 910 958 910 958 910 928 c 0,12,13
 910 899 910 899 889 878 c 128,-1,14
 868 857 868 857 839 857 c 2,15,-1
 410 857 l 2,16,17
 380 857 380 857 359 836 c 128,-1,18
 338 815 338 815 339 786 c 2,19,-1
 339 286 l 2,20,21
 339 226 339 226 297 185 c 0,22,0
 255 143 255 143 196 143 c 128,-1,1
410 0 m 2,23,24
 380 0 380 0 359 21 c 0,25,26
 338.954545455 41.0454545455 338.954545455 41.0454545455 338.954545455 68.3801652893 c 0,27,28
 338.954545455 99.95 338.954545455 99.95 359 122 c 0,29,30
 380 143 380 143 410 143 c 2,31,-1
 839 143 l 2,32,33
 868 143 868 143 889 164 c 128,-1,34
 910 185 910 185 910 214 c 2,35,-1
 910 786 l 2,36,37
 910 815 910 815 931 836 c 128,-1,38
 952 857 952 857 981 857 c 0,39,40
 1011 857 1011 857 1032 836 c 128,-1,41
 1053 815 1053 815 1053 786 c 2,42,-1
 1053 71 l 2,43,44
 1053 41 1053 41 1032 21 c 0,45,46
 1011 0 1011 0 981 0 c 2,47,-1
 410 0 l 2,23,24
EndSplineSet
Validated: 524321
EndChar

StartChar: x
Encoding: 120 120 80
Width: 963
Flags: W
HStem: 0 143<359.658 602.342 788.658 888.342> 714 286<404.97 557.435>
VStem: 196 143<306.658 692.342> 338.977 285.023<780.358 932.804> 624 143<164.658 693.651>
LayerCount: 2
Fore
SplineSet
124 0 m 2,0,1
 94 0 94 0 74 21 c 0,2,3
 53 42 53 42 53 71 c 2,4,-1
 53 214 l 2,5,6
 53 244 53 244 74 265 c 128,-1,7
 95 286 95 286 124 286 c 128,-1,8
 153 286 153 286 175 306 c 0,9,10
 196 327 196 327 196 357 c 2,11,-1
 196 643 l 2,12,13
 196 673 196 673 217 693 c 0,14,15
 238 714 238 714 267 714 c 0,16,17
 297 714 297 714 318 693 c 128,-1,18
 339 672 339 672 339 643 c 2,19,-1
 339 214 l 2,20,21
 339 185 339 185 359 164 c 0,22,23
 380 143 380 143 410 143 c 2,24,-1
 553 143 l 2,25,26
 582 143 582 143 603 164 c 128,-1,27
 624 185 624 185 624 214 c 2,28,-1
 624 643 l 2,29,30
 624 673 624 673 603 693 c 0,31,32
 582 714 582 714 553 714 c 2,33,-1
 481 714 l 2,34,35
 422 714 422 714 380 756 c 0,36,37
 338.976744186 797.023255814 338.976744186 797.023255814 338.976744186 854.265008112 c 0,38,39
 338.976744186 915.976176971 338.976744186 915.976176971 380 958 c 0,40,41
 422 1000 422 1000 481 1000 c 0,42,43
 541 1000 541 1000 582 958 c 0,44,45
 624 916 624 916 624 857 c 2,46,-1
 624 786 l 2,47,48
 624 756 624 756 645 735 c 128,-1,49
 666 714 666 714 696 714 c 128,-1,50
 726 714 726 714 746 693 c 0,51,52
 767 672 767 672 767 643 c 2,53,-1
 767 214 l 2,54,55
 767 185 767 185 788 164 c 128,-1,56
 809 143 809 143 839 143 c 0,57,58
 868 143 868 143 889 122 c 128,-1,59
 910 101 910 101 910 71 c 128,-1,60
 910 41 910 41 889 21 c 0,61,62
 868 0 868 0 839 0 c 2,63,-1
 124 0 l 2,0,1
EndSplineSet
Validated: 524289
EndChar

StartChar: y
Encoding: 121 121 81
Width: 821
Flags: W
HStem: 0 286<405.47 557.53> 857 143<218.158 317.842>
VStem: 53.5 143<592.689 835.342> 339.455 142.045<735.658 835.343> 339.477 285.023<67.787 218.804> 624.5 143<306.658 978.342>
LayerCount: 2
Fore
SplineSet
481.5 0 m 128,-1,1
 422.5 0 422.5 0 380.5 42 c 0,2,3
 339.476744186 83.023255814 339.476744186 83.023255814 339.476744186 140.265008112 c 0,4,5
 339.476744186 201.976176971 339.476744186 201.976176971 380.5 244 c 0,6,7
 422.5 286 422.5 286 481.5 286 c 2,8,-1
 553.5 286 l 2,9,10
 582.5 286 582.5 286 603.5 306 c 0,11,12
 624.5 327 624.5 327 624.5 357 c 2,13,-1
 624.5 928 l 2,14,15
 624.5 958 624.5 958 645.5 979 c 128,-1,16
 666.5 1000 666.5 1000 696.5 1000 c 128,-1,17
 726.5 1000 726.5 1000 746.5 979 c 0,18,19
 767.5 958 767.5 958 767.5 928 c 2,20,-1
 767.5 357 l 2,21,22
 767.5 327 767.5 327 746.5 306 c 0,23,24
 726.454545455 285.954545455 726.454545455 285.954545455 699.119834711 285.954545455 c 0,25,26
 697.818181818 285.954545455 697.818181818 285.954545455 696.5 286 c 0,27,28
 667.5 286 667.5 286 645.5 265 c 0,29,30
 624.5 244 624.5 244 624.5 214 c 2,31,-1
 624.5 143 l 2,32,33
 624.5 84 624.5 84 582.5 42 c 128,-1,0
 540.5 0 540.5 0 481.5 0 c 128,-1,1
196.5 286 m 0,34,35
 137.5 286 137.5 286 95.5 327 c 0,36,37
 53.5 369 53.5 369 53.5 428 c 2,38,-1
 53.5 928 l 2,39,40
 53.5 957 53.5 957 74.5 979 c 0,41,42
 95.5 1000 95.5 1000 124.5 1000 c 2,43,-1
 339.5 1000 l 2,44,45
 398.5 1000 398.5 1000 439.5 958 c 0,46,47
 481.5 916 481.5 916 481.5 857 c 2,48,-1
 481.5 786 l 2,49,50
 481.5 756 481.5 756 460.5 735 c 128,-1,51
 439.5 714 439.5 714 410.5 714 c 0,52,53
 380.5 714 380.5 714 359.5 735 c 0,54,55
 339.454545455 755.045454545 339.454545455 755.045454545 339.454545455 783.291322314 c 0,56,57
 339.454545455 815.045454545 339.454545455 815.045454545 318.5 836 c 128,-1,58
 297.5 857 297.5 857 267.5 857 c 0,59,60
 238.5 857 238.5 857 217.5 836 c 128,-1,61
 196.5 815 196.5 815 196.5 786 c 2,62,-1
 196.5 643 l 2,63,64
 196.5 614 196.5 614 217.5 592 c 0,65,66
 238.5 571 238.5 571 267.5 571 c 0,67,68
 297.5 571 297.5 571 318.5 550 c 128,-1,69
 339.5 529 339.5 529 339.5 500 c 2,70,-1
 339.5 428 l 2,71,72
 339.5 369 339.5 369 297.5 327 c 0,73,74
 256.476744186 285.976744186 256.476744186 285.976744186 199.234991888 285.976744186 c 0,75,76
 197.872093023 285.976744186 197.872093023 285.976744186 196.5 286 c 0,34,35
EndSplineSet
Validated: 524289
EndChar

StartChar: z
Encoding: 122 122 82
Width: 963
Flags: W
HStem: 0 286<119.97 317.342> 0 143<359.658 602.342> 428 143<217.658 602.342> 980 20G<737.5 797> 980 20G<737.5 797>
VStem: 624 286<735.658 933.03> 624 143<164.658 406.342 592.658 692.342>
LayerCount: 2
Fore
SplineSet
196 0 m 2,0,1
 137 0 137 0 95 42 c 128,-1,2
 53 84 53 84 53 143 c 128,-1,3
 53 202 53 202 95 244 c 128,-1,4
 137 286 137 286 196 286 c 2,5,-1
 267 286 l 2,6,7
 297 286 297 286 318 265 c 128,-1,8
 339 244 339 244 339 214 c 0,9,10
 339 185 339 185 359 164 c 0,11,12
 380 143 380 143 410 143 c 2,13,-1
 553 143 l 2,14,15
 582 143 582 143 603 164 c 128,-1,16
 624 185 624 185 624 214 c 2,17,-1
 624 357 l 2,18,19
 624 386 624 386 603 407 c 128,-1,20
 582 428 582 428 553 428 c 2,21,-1
 267 428 l 2,22,23
 238 428 238 428 217 449 c 128,-1,24
 196 470 196 470 196 500 c 0,25,26
 196 529 196 529 217 550 c 128,-1,27
 238 571 238 571 267 571 c 2,28,-1
 553 571 l 2,29,30
 582 571 582 571 603 592 c 128,-1,31
 624 613 624 613 624 643 c 2,32,-1
 624 857 l 2,33,34
 624 916 624 916 666 958 c 128,-1,35
 708 1000 708 1000 767 1000 c 0,36,37
 827 1000 827 1000 868 958 c 0,38,39
 910 916 910 916 910 857 c 2,40,-1
 910 786 l 2,41,42
 910 756 910 756 889 735 c 128,-1,43
 868 714 868 714 839 714 c 0,44,45
 809 714 809 714 788 693 c 128,-1,46
 767 672 767 672 767 643 c 2,47,-1
 767 71 l 2,48,49
 767 41 767 41 746 21 c 0,50,51
 725 0 725 0 696 0 c 2,52,-1
 196 0 l 2,0,1
EndSplineSet
Validated: 1
EndChar

StartChar: quoteleft
Encoding: 8216 8216 83
Width: 392
Flags: W
HStem: 714 429<217.658 317.342> 1000 143<74.6582 174.342>
VStem: 53 286<1020.35 1121.31> 196 143<735.658 978.342>
LayerCount: 2
Fore
SplineSet
267 714 m 0,0,1
 238 714 238 714 217 735 c 128,-1,2
 196 756 196 756 196 786 c 2,3,-1
 196 928 l 2,4,5
 196 958 196 958 175 979 c 128,-1,6
 154 1000 154 1000 124 1000 c 128,-1,7
 94 1000 94 1000 74 1021 c 0,8,9
 53 1042 53 1042 53 1071 c 128,-1,10
 53 1100 53 1100 74 1122 c 0,11,12
 95 1143 95 1143 124 1143 c 2,13,-1
 267 1143 l 2,14,15
 297 1143 297 1143 318 1122 c 128,-1,16
 339 1101 339 1101 339 1071 c 2,17,-1
 339 786 l 2,18,19
 339 756 339 756 318 735 c 128,-1,20
 297 714 297 714 267 714 c 0,0,1
EndSplineSet
Validated: 1
EndChar

StartChar: quoteright
Encoding: 8217 8217 84
Width: 392
Flags: W
HStem: 714 429<74.6582 174.342> 1000 143<217.658 317.342>
VStem: 53 286<1020.35 1121.34> 53 143<735.658 978.342>
LayerCount: 2
Fore
SplineSet
124 714 m 128,-1,1
 94 714 94 714 74 735 c 0,2,3
 53 756 53 756 53 786 c 2,4,-1
 53 1071 l 2,5,6
 53 1101 53 1101 74 1122 c 128,-1,7
 95 1143 95 1143 124 1143 c 2,8,-1
 267 1143 l 2,9,10
 297 1143 297 1143 318 1122 c 128,-1,11
 339 1101 339 1101 339 1071 c 128,-1,12
 339 1041 339 1041 318 1021 c 0,13,14
 297 1000 297 1000 267 1000 c 0,15,16
 238 1000 238 1000 217 979 c 128,-1,17
 196 958 196 958 196 928 c 2,18,-1
 196 786 l 2,19,20
 196 756 196 756 175 735 c 128,-1,0
 154 714 154 714 124 714 c 128,-1,1
EndSplineSet
Validated: 1
EndChar

StartChar: quotedblleft
Encoding: 8220 8220 85
Width: 392
Flags: W
HStem: 714 286<217.658 317.342> 857 286<74.6582 174.311>
VStem: 53 143<1020.35 1121.31> 196 143<735.658 835.342>
LayerCount: 2
Fore
SplineSet
267 714 m 0,0,1
 238 714 238 714 217 735 c 128,-1,2
 196 756 196 756 196 786 c 0,3,4
 196 815 196 815 175 836 c 128,-1,5
 154 857 154 857 124 857 c 128,-1,6
 94 857 94 857 74 878 c 0,7,8
 53 899 53 899 53 928 c 2,9,-1
 53 1071 l 2,10,11
 53 1100 53 1100 74 1122 c 0,12,13
 95 1143 95 1143 124 1143 c 128,-1,14
 153 1143 153 1143 175 1122 c 0,15,16
 196 1101 196 1101 196 1071 c 128,-1,17
 196 1041 196 1041 217 1021 c 0,18,19
 238 1000 238 1000 267 1000 c 0,20,21
 297 1000 297 1000 318 979 c 128,-1,22
 339 958 339 958 339 928 c 2,23,-1
 339 786 l 2,24,25
 339 756 339 756 318 735 c 128,-1,26
 297 714 297 714 267 714 c 0,0,1
EndSplineSet
Validated: 1
EndChar

StartChar: quotedblright
Encoding: 8221 8221 86
Width: 392
Flags: W
HStem: 714 286<217.658 317.342> 857 286<74.6582 174.311>
VStem: 53 143<1020.35 1121.31> 196 143<735.658 835.342>
LayerCount: 2
Fore
SplineSet
267 714 m 0,0,1
 238 714 238 714 217 735 c 128,-1,2
 196 756 196 756 196 786 c 0,3,4
 196 815 196 815 175 836 c 128,-1,5
 154 857 154 857 124 857 c 128,-1,6
 94 857 94 857 74 878 c 0,7,8
 53 899 53 899 53 928 c 2,9,-1
 53 1071 l 2,10,11
 53 1100 53 1100 74 1122 c 0,12,13
 95 1143 95 1143 124 1143 c 128,-1,14
 153 1143 153 1143 175 1122 c 0,15,16
 196 1101 196 1101 196 1071 c 128,-1,17
 196 1041 196 1041 217 1021 c 0,18,19
 238 1000 238 1000 267 1000 c 0,20,21
 297 1000 297 1000 318 979 c 128,-1,22
 339 958 339 958 339 928 c 2,23,-1
 339 786 l 2,24,25
 339 756 339 756 318 735 c 128,-1,26
 297 714 297 714 267 714 c 0,0,1
EndSplineSet
Validated: 1
EndChar
